M48
;GenerationSoftware,Autodesk,EAGLE,9.6.2*%
;CreationDate,2020-10-02T18:48:43Z*%
FMAT,2
ICI,OFF
METRIC,TZ,000.000
T8C0.500
T7C0.550
T6C0.650
T5C0.800
T4C1.016
T3C1.020
T2C1.100
T1C1.200
%
G90
M71
T1
X60706Y22352
X63246Y22352
X65786Y22352
X68326Y22352
X34544Y15621
X34544Y18161
X34544Y20701
X34544Y23241
T2
X6165Y6377
X9665Y6377
X13165Y6377
X16665Y6377
X20165Y6377
X23665Y6377
X27165Y6377
X30665Y6377
T3
X3045Y6350
X3045Y19050
T4
X6985Y14605
X9525Y14605
X12065Y14605
X14605Y14605
X17145Y14605
T5
X62230Y17653
T6
X65151Y3429
X31750Y11430
X60198Y8636
X35560Y8890
X60706Y3556
X67945Y11811
T7
X43561Y5080
T8
X27940Y15875
M30