G04 EAGLE Gerber RS-274X export*
G75*
%MOMM*%
%FSLAX34Y34*%
%LPD*%
%INTop Copper*%
%IPPOS*%
%AMOC8*
5,1,8,0,0,1.08239X$1,22.5*%
G01*
%ADD10R,1.778000X1.778000*%
%ADD11C,1.778000*%
%ADD12R,1.765300X0.558800*%
%ADD13R,0.660400X0.939800*%
%ADD14R,0.939800X0.660400*%
%ADD15R,0.500000X1.075000*%
%ADD16R,1.250000X0.650000*%
%ADD17R,0.850000X1.000000*%
%ADD18R,1.600000X0.700000*%
%ADD19R,1.000000X0.600000*%
%ADD20R,1.450000X1.000000*%
%ADD21C,1.800000*%
%ADD22C,2.540000*%
%ADD23R,0.950000X1.600000*%
%ADD24C,1.700000*%
%ADD25R,1.000000X0.850000*%
%ADD26R,0.800000X0.800000*%
%ADD27C,0.609600*%
%ADD28C,0.812800*%
%ADD29C,0.508000*%
%ADD30C,1.056400*%
%ADD31C,0.956400*%
%ADD32C,0.254000*%
%ADD33C,0.406400*%
%ADD34C,0.304800*%
%ADD35C,1.206400*%
%ADD36C,0.906400*%


D10*
X69850Y146050D03*
D11*
X95250Y146050D03*
X120650Y146050D03*
X146050Y146050D03*
X171450Y146050D03*
D12*
X300292Y120650D03*
X300292Y133350D03*
X300292Y146050D03*
X300292Y158750D03*
X300292Y171450D03*
X300292Y184150D03*
X300292Y196850D03*
X300292Y209550D03*
X300292Y222250D03*
X300292Y234950D03*
X207709Y234950D03*
X207709Y222250D03*
X207709Y209550D03*
X207709Y196850D03*
X207709Y184150D03*
X207709Y171450D03*
X207709Y158750D03*
X207709Y146050D03*
X207709Y133350D03*
X207709Y120650D03*
D13*
X108712Y114300D03*
X94488Y114300D03*
D14*
X377190Y90678D03*
X377190Y104902D03*
X681990Y166878D03*
X681990Y181102D03*
D15*
X728980Y175070D03*
X728980Y198310D03*
D16*
X639740Y182220D03*
X639740Y163220D03*
X660740Y172720D03*
D17*
X68700Y231140D03*
X83700Y231140D03*
X68700Y215900D03*
X83700Y215900D03*
X68700Y200660D03*
X83700Y200660D03*
D18*
X124700Y226400D03*
X154700Y226400D03*
X124700Y215900D03*
X154700Y215900D03*
X124700Y205400D03*
X154700Y205400D03*
D19*
X337250Y127660D03*
X337250Y108560D03*
X361250Y118110D03*
D20*
X451200Y50800D03*
X526700Y50800D03*
X421290Y50800D03*
X345790Y50800D03*
D21*
X607060Y214520D02*
X607060Y232520D01*
X632460Y232520D02*
X632460Y214520D01*
X657860Y214520D02*
X657860Y232520D01*
X683260Y232520D02*
X683260Y214520D01*
D22*
X30450Y63500D03*
X30450Y190500D03*
D23*
X510540Y228600D03*
X495540Y228600D03*
X480540Y228600D03*
X465540Y228600D03*
X450540Y228600D03*
X435540Y228600D03*
X420540Y228600D03*
X405540Y228600D03*
X405540Y102600D03*
X420540Y102600D03*
X435540Y102600D03*
X450540Y102600D03*
X465540Y102600D03*
X480540Y102600D03*
X495540Y102600D03*
X510540Y102600D03*
X711200Y142240D03*
X696200Y142240D03*
X681200Y142240D03*
X666200Y142240D03*
X651200Y142240D03*
X636200Y142240D03*
X621200Y142240D03*
X606200Y142240D03*
X606200Y16240D03*
X621200Y16240D03*
X636200Y16240D03*
X651200Y16240D03*
X666200Y16240D03*
X681200Y16240D03*
X696200Y16240D03*
X711200Y16240D03*
D14*
X703580Y179832D03*
X703580Y165608D03*
D24*
X61650Y63770D03*
X96650Y63770D03*
X131650Y63770D03*
X166650Y63770D03*
X201650Y63770D03*
X236650Y63770D03*
X271650Y63770D03*
X306650Y63770D03*
D25*
X605790Y165220D03*
X605790Y180220D03*
D26*
X753110Y171570D03*
X753110Y186570D03*
D25*
X751840Y202050D03*
X751840Y217050D03*
D21*
X354440Y156210D02*
X336440Y156210D01*
X336440Y181610D02*
X354440Y181610D01*
X354440Y207010D02*
X336440Y207010D01*
X336440Y232410D02*
X354440Y232410D01*
D27*
X120650Y146050D02*
X120650Y126238D01*
X108712Y114300D01*
D28*
X421290Y50800D02*
X435610Y50800D01*
X451200Y50800D01*
X425100Y50800D02*
X421290Y50800D01*
D29*
X400558Y76200D02*
X391668Y76200D01*
X377190Y90678D01*
D27*
X188530Y120650D02*
X131650Y63770D01*
X188530Y120650D02*
X207709Y120650D01*
X93130Y95250D02*
X61650Y63770D01*
X93130Y95250D02*
X101600Y95250D01*
X108712Y102362D01*
X108712Y114300D01*
D30*
X651510Y34290D03*
D31*
X435610Y50800D03*
D28*
X651200Y33980D02*
X651200Y16240D01*
X651200Y33980D02*
X651510Y34290D01*
D27*
X703580Y203200D02*
X683260Y223520D01*
X703580Y203200D02*
X703580Y179832D01*
X700797Y179832D01*
X687843Y166878D01*
X681990Y166878D01*
X665480Y172720D02*
X660740Y172720D01*
X665480Y172720D02*
X671322Y166878D01*
X681990Y166878D01*
D28*
X469900Y50800D02*
X451200Y50800D01*
X421290Y50800D02*
X408940Y50800D01*
D32*
X651510Y34290D02*
X651510Y67310D01*
X660400Y76200D01*
X698500Y76200D01*
X711200Y88900D01*
X745116Y163576D02*
X753110Y171570D01*
X711200Y120650D02*
X711200Y88900D01*
X711200Y120650D02*
X718744Y128194D01*
X718744Y152400D01*
X729920Y163576D01*
X745116Y163576D01*
D28*
X450540Y102600D02*
X450540Y65730D01*
X435610Y50800D01*
D33*
X408940Y67818D02*
X400558Y76200D01*
X408940Y67818D02*
X408940Y50800D01*
D27*
X124700Y226400D02*
X110150Y226400D01*
X105410Y231140D02*
X83700Y231140D01*
X105410Y231140D02*
X110150Y226400D01*
X124700Y215900D02*
X83700Y215900D01*
X110150Y205400D02*
X124700Y205400D01*
X105410Y200660D02*
X83700Y200660D01*
X105410Y200660D02*
X110150Y205400D01*
X154700Y205400D02*
X192700Y205400D01*
X196850Y209550D01*
X207709Y209550D01*
X190500Y222250D02*
X184150Y215900D01*
X190500Y222250D02*
X207709Y222250D01*
X184150Y215900D02*
X154700Y215900D01*
X154700Y226400D02*
X175600Y226400D01*
X184150Y234950D02*
X207709Y234950D01*
X184150Y234950D02*
X175600Y226400D01*
X68700Y231140D02*
X68700Y215900D01*
X68700Y200660D01*
X68700Y185300D01*
X95250Y158750D01*
D32*
X336640Y107950D02*
X337250Y108560D01*
D29*
X317500Y114300D02*
X300292Y120650D01*
D30*
X317500Y114300D03*
D27*
X323850Y107950D01*
X336640Y107950D01*
X95250Y146050D02*
X95250Y158750D01*
X95250Y146050D02*
X95250Y115062D01*
X94488Y114300D01*
X30450Y93950D02*
X30450Y63500D01*
X30450Y93950D02*
X50800Y114300D01*
X94488Y114300D01*
D32*
X311150Y234950D02*
X321310Y245110D01*
X311150Y234950D02*
X300292Y234950D01*
X519684Y242316D02*
X519684Y54006D01*
X522890Y50800D02*
X526700Y50800D01*
X522890Y50800D02*
X519684Y54006D01*
D28*
X514350Y50800D02*
X526700Y50800D01*
D34*
X516890Y245110D02*
X321310Y245110D01*
X516890Y245110D02*
X519684Y242316D01*
D32*
X349250Y52070D02*
X349250Y50800D01*
X349250Y52070D02*
X294640Y106680D01*
X288290Y106680D01*
X279400Y115570D01*
X279400Y139700D01*
X285750Y146050D01*
X300292Y146050D01*
D28*
X345790Y50800D02*
X349250Y50800D01*
X345790Y50800D02*
X358140Y50800D01*
D32*
X495540Y203440D02*
X495540Y228600D01*
X308610Y171450D02*
X300292Y171450D01*
X317500Y149860D02*
X326390Y140970D01*
X433070Y140970D01*
X317500Y162560D02*
X308610Y171450D01*
X317500Y162560D02*
X317500Y149860D01*
X433070Y140970D02*
X495540Y203440D01*
D30*
X601980Y86360D03*
D34*
X342900Y209550D02*
X300292Y209550D01*
X342900Y209550D02*
X345440Y207010D01*
D32*
X601980Y86360D02*
X629920Y114300D01*
X660400Y114300D01*
X666200Y120100D01*
X666200Y142240D01*
D30*
X355600Y88900D03*
D32*
X637540Y182220D02*
X639740Y182220D01*
D35*
X622300Y176530D03*
D30*
X607060Y35560D03*
D27*
X606200Y34700D02*
X606200Y16240D01*
X606200Y34700D02*
X607060Y35560D01*
X622300Y176530D02*
X627990Y182220D01*
X637540Y182220D01*
D33*
X680872Y182220D02*
X681990Y181102D01*
D27*
X647700Y190180D02*
X639740Y182220D01*
X647700Y190180D02*
X647700Y190500D01*
X672592Y190500D01*
X680872Y182220D01*
X405540Y102600D02*
X403238Y104902D01*
X377190Y104902D01*
X377190Y118110D01*
X377190Y104902D02*
X365252Y104902D01*
X355600Y95250D01*
X355600Y88900D01*
X361250Y118110D02*
X377190Y118110D01*
D34*
X306650Y84510D02*
X306650Y63770D01*
X292100Y99060D02*
X280670Y99060D01*
X264160Y115570D01*
X264160Y207010D02*
X279400Y222250D01*
X300292Y222250D01*
X292100Y99060D02*
X306650Y84510D01*
X264160Y115570D02*
X264160Y207010D01*
X337250Y127660D02*
X336590Y127000D01*
X323850Y127000D01*
X317500Y133350D01*
X300292Y133350D01*
D32*
X133350Y100470D02*
X96650Y63770D01*
X133350Y100470D02*
X133350Y165100D01*
X158750Y190500D01*
X190500Y190500D02*
X196850Y196850D01*
X207709Y196850D01*
X190500Y190500D02*
X158750Y190500D01*
X207709Y184150D02*
X223520Y184150D01*
X251460Y156210D01*
X292100Y78740D02*
X292100Y48260D01*
X281940Y38100D01*
X192320Y38100D01*
X166650Y63770D01*
X279400Y91440D02*
X292100Y78740D01*
X279400Y91440D02*
X271780Y91440D01*
X251460Y111760D01*
X251460Y156210D01*
X201650Y63770D02*
X201650Y58700D01*
X278130Y44450D02*
X285750Y52070D01*
X285750Y74930D01*
X243840Y149860D02*
X222250Y171450D01*
X207709Y171450D01*
X201650Y58700D02*
X215900Y44450D01*
X278130Y44450D01*
X285750Y74930D02*
X276860Y83820D01*
X266700Y83820D01*
X243840Y106680D01*
X243840Y149860D01*
X271650Y66310D02*
X271650Y63770D01*
X271650Y66310D02*
X234950Y103010D01*
X234950Y143510D01*
X219710Y158750D01*
X207709Y158750D01*
X469900Y209550D02*
X469900Y224240D01*
X465540Y228600D01*
X309880Y184150D02*
X300292Y184150D01*
X309880Y184150D02*
X325120Y168910D01*
X429260Y168910D01*
X469900Y209550D01*
D30*
X679450Y118110D03*
D32*
X701707Y156210D02*
X710120Y156210D01*
X696200Y150703D02*
X696200Y142240D01*
X710120Y156210D02*
X728980Y175070D01*
X701707Y156210D02*
X696200Y150703D01*
X696200Y142240D02*
X696200Y128510D01*
X685800Y118110D01*
X679450Y118110D01*
D34*
X317500Y196850D02*
X300292Y196850D01*
X332740Y181610D02*
X345440Y181610D01*
X332740Y181610D02*
X317500Y196850D01*
X300292Y158750D02*
X279400Y158750D01*
D36*
X279400Y158750D03*
D34*
X207709Y133350D02*
X206439Y132080D01*
X160020Y132080D01*
D33*
X146050Y146050D01*
D32*
X632460Y223520D02*
X632460Y237490D01*
X641350Y246380D01*
X706120Y246380D01*
X728980Y223520D01*
X632460Y206890D02*
X605790Y180220D01*
X632460Y206890D02*
X632460Y223520D01*
X728980Y223520D02*
X728980Y198310D01*
X639740Y163220D02*
X639740Y160360D01*
X638690Y161410D01*
X639740Y160360D02*
X641350Y158750D01*
X692150Y158750D01*
X699008Y165608D02*
X703580Y165608D01*
X699008Y165608D02*
X692150Y158750D01*
D27*
X607060Y223520D02*
X593090Y209550D01*
X593090Y166370D02*
X596900Y162560D01*
X603130Y162560D01*
X605790Y165220D01*
X593090Y166370D02*
X593090Y209550D01*
X609600Y161410D02*
X638690Y161410D01*
X609600Y161410D02*
X605790Y165220D01*
D32*
X696200Y29450D02*
X696200Y16240D01*
X715264Y118967D02*
X722808Y126511D01*
X722808Y150038D01*
X715264Y48514D02*
X696200Y29450D01*
X715264Y48514D02*
X715264Y118967D01*
X722808Y150038D02*
X731520Y158750D01*
X758190Y158750D01*
D34*
X758310Y217050D02*
X751840Y217050D01*
X758310Y217050D02*
X763270Y212090D01*
X763270Y163830D01*
X758190Y158750D01*
X753110Y200780D02*
X751840Y202050D01*
X753110Y200780D02*
X753110Y186570D01*
D32*
X236650Y83820D02*
X236650Y63770D01*
X236650Y83820D02*
X226060Y94410D01*
X226060Y138430D01*
X218440Y146050D01*
X207709Y146050D01*
D33*
X171450Y146050D01*
M02*
