G04 EAGLE Gerber RS-274X export*
G75*
%MOMM*%
%FSLAX34Y34*%
%LPD*%
%INBottom Copper*%
%IPPOS*%
%AMOC8*
5,1,8,0,0,1.08239X$1,22.5*%
G01*
%ADD10R,1.778000X1.778000*%
%ADD11C,1.778000*%
%ADD12C,1.800000*%
%ADD13C,2.540000*%
%ADD14C,1.700000*%
%ADD15C,1.056400*%
%ADD16C,0.609600*%
%ADD17C,0.956400*%
%ADD18C,0.254000*%
%ADD19C,0.812800*%
%ADD20C,1.206400*%
%ADD21C,0.304800*%
%ADD22C,0.906400*%
%ADD23C,0.406400*%

G36*
X508035Y6354D02*
X508035Y6354D01*
X508069Y6352D01*
X508258Y6374D01*
X508449Y6391D01*
X508482Y6400D01*
X508516Y6404D01*
X508699Y6459D01*
X508883Y6509D01*
X508914Y6524D01*
X508947Y6534D01*
X509118Y6621D01*
X509290Y6703D01*
X509318Y6723D01*
X509349Y6738D01*
X509501Y6854D01*
X509656Y6965D01*
X509680Y6990D01*
X509707Y7010D01*
X509836Y7150D01*
X509970Y7287D01*
X509989Y7316D01*
X510013Y7342D01*
X510115Y7503D01*
X510222Y7660D01*
X510236Y7692D01*
X510254Y7721D01*
X510327Y7898D01*
X510404Y8072D01*
X510412Y8106D01*
X510425Y8138D01*
X510465Y8325D01*
X510511Y8510D01*
X510513Y8544D01*
X510520Y8578D01*
X510539Y8890D01*
X510539Y54356D01*
X510536Y54391D01*
X510538Y54425D01*
X510516Y54614D01*
X510499Y54805D01*
X510490Y54838D01*
X510486Y54872D01*
X510431Y55055D01*
X510381Y55239D01*
X510366Y55270D01*
X510356Y55303D01*
X510269Y55474D01*
X510187Y55646D01*
X510167Y55674D01*
X510152Y55705D01*
X510036Y55857D01*
X509925Y56012D01*
X509900Y56036D01*
X509880Y56063D01*
X509740Y56192D01*
X509603Y56326D01*
X509574Y56345D01*
X509548Y56369D01*
X509387Y56471D01*
X509230Y56578D01*
X509198Y56592D01*
X509169Y56610D01*
X508992Y56683D01*
X508818Y56760D01*
X508784Y56768D01*
X508752Y56781D01*
X508565Y56821D01*
X508380Y56867D01*
X508346Y56869D01*
X508312Y56876D01*
X508000Y56895D01*
X381209Y56895D01*
X379248Y57707D01*
X358146Y78810D01*
X358020Y78915D01*
X357899Y79027D01*
X357847Y79059D01*
X357801Y79098D01*
X357658Y79180D01*
X357519Y79268D01*
X357463Y79292D01*
X357410Y79322D01*
X357255Y79377D01*
X357103Y79439D01*
X357043Y79452D01*
X356985Y79473D01*
X356823Y79499D01*
X356662Y79534D01*
X356585Y79539D01*
X356541Y79546D01*
X356480Y79545D01*
X356350Y79553D01*
X353741Y79553D01*
X350306Y80976D01*
X350238Y81043D01*
X350112Y81149D01*
X349991Y81261D01*
X349940Y81293D01*
X349893Y81332D01*
X349750Y81414D01*
X349611Y81502D01*
X349555Y81526D01*
X349502Y81556D01*
X349347Y81611D01*
X349195Y81673D01*
X349135Y81686D01*
X349078Y81707D01*
X348916Y81733D01*
X348755Y81768D01*
X348677Y81773D01*
X348633Y81780D01*
X348573Y81779D01*
X348443Y81787D01*
X335778Y81787D01*
X335614Y81773D01*
X335450Y81766D01*
X335390Y81753D01*
X335329Y81747D01*
X335171Y81704D01*
X335010Y81668D01*
X334954Y81645D01*
X334895Y81629D01*
X334747Y81558D01*
X334595Y81495D01*
X334543Y81462D01*
X334488Y81435D01*
X334355Y81340D01*
X334217Y81250D01*
X334159Y81199D01*
X334122Y81173D01*
X334080Y81130D01*
X333982Y81044D01*
X319958Y67020D01*
X319853Y66893D01*
X319741Y66772D01*
X319709Y66721D01*
X319670Y66674D01*
X319588Y66531D01*
X319500Y66393D01*
X319476Y66336D01*
X319446Y66283D01*
X319391Y66128D01*
X319329Y65976D01*
X319316Y65916D01*
X319295Y65859D01*
X319269Y65697D01*
X319234Y65536D01*
X319229Y65459D01*
X319222Y65415D01*
X319223Y65354D01*
X319215Y65224D01*
X319215Y61271D01*
X317302Y56653D01*
X313767Y53118D01*
X309149Y51205D01*
X304151Y51205D01*
X299533Y53118D01*
X295998Y56653D01*
X294085Y61271D01*
X294085Y66269D01*
X295998Y70887D01*
X299533Y74422D01*
X304151Y76335D01*
X308104Y76335D01*
X308268Y76349D01*
X308432Y76356D01*
X308492Y76369D01*
X308553Y76375D01*
X308711Y76418D01*
X308872Y76454D01*
X308928Y76477D01*
X308987Y76493D01*
X309135Y76564D01*
X309287Y76627D01*
X309339Y76660D01*
X309394Y76687D01*
X309527Y76782D01*
X309665Y76872D01*
X309723Y76923D01*
X309760Y76949D01*
X309802Y76992D01*
X309900Y77078D01*
X327751Y94930D01*
X330365Y96013D01*
X348443Y96013D01*
X348607Y96027D01*
X348771Y96034D01*
X348830Y96047D01*
X348891Y96053D01*
X349050Y96096D01*
X349210Y96132D01*
X349267Y96155D01*
X349326Y96171D01*
X349474Y96242D01*
X349626Y96305D01*
X349677Y96338D01*
X349732Y96365D01*
X349866Y96460D01*
X350004Y96550D01*
X350062Y96601D01*
X350098Y96627D01*
X350141Y96670D01*
X350238Y96757D01*
X350306Y96824D01*
X353741Y98247D01*
X357459Y98247D01*
X360894Y96824D01*
X363524Y94194D01*
X364947Y90759D01*
X364947Y88150D01*
X364961Y87986D01*
X364968Y87821D01*
X364981Y87762D01*
X364987Y87701D01*
X365030Y87542D01*
X365066Y87382D01*
X365089Y87325D01*
X365105Y87267D01*
X365176Y87119D01*
X365239Y86966D01*
X365272Y86915D01*
X365299Y86860D01*
X365394Y86727D01*
X365484Y86588D01*
X365535Y86530D01*
X365561Y86494D01*
X365604Y86451D01*
X365690Y86354D01*
X383736Y68308D01*
X383862Y68203D01*
X383983Y68091D01*
X384035Y68059D01*
X384081Y68020D01*
X384224Y67938D01*
X384363Y67850D01*
X384419Y67826D01*
X384472Y67796D01*
X384627Y67741D01*
X384779Y67679D01*
X384839Y67666D01*
X384897Y67645D01*
X385059Y67619D01*
X385220Y67584D01*
X385297Y67579D01*
X385341Y67572D01*
X385402Y67573D01*
X385532Y67565D01*
X390185Y67565D01*
X390314Y67576D01*
X390444Y67578D01*
X390538Y67596D01*
X390633Y67605D01*
X390758Y67639D01*
X390886Y67664D01*
X390975Y67698D01*
X391067Y67723D01*
X391185Y67779D01*
X391306Y67826D01*
X391388Y67876D01*
X391474Y67917D01*
X391580Y67992D01*
X391691Y68060D01*
X391762Y68123D01*
X391840Y68179D01*
X391931Y68272D01*
X392028Y68358D01*
X392087Y68433D01*
X392154Y68501D01*
X392227Y68609D01*
X392308Y68711D01*
X392353Y68795D01*
X392406Y68874D01*
X392459Y68993D01*
X392520Y69108D01*
X392550Y69199D01*
X392589Y69286D01*
X392619Y69413D01*
X392659Y69536D01*
X392673Y69631D01*
X392695Y69724D01*
X392703Y69853D01*
X392721Y69982D01*
X392717Y70078D01*
X392723Y70173D01*
X392708Y70302D01*
X392703Y70432D01*
X392682Y70525D01*
X392671Y70620D01*
X392633Y70745D01*
X392605Y70872D01*
X392568Y70960D01*
X392540Y71051D01*
X392482Y71167D01*
X392431Y71287D01*
X392379Y71368D01*
X392336Y71453D01*
X392258Y71556D01*
X392187Y71665D01*
X392101Y71763D01*
X392064Y71811D01*
X392031Y71842D01*
X391980Y71900D01*
X378335Y85544D01*
X376477Y87402D01*
X375665Y89363D01*
X375665Y161838D01*
X375651Y162002D01*
X375644Y162167D01*
X375631Y162226D01*
X375625Y162287D01*
X375582Y162445D01*
X375546Y162606D01*
X375523Y162663D01*
X375507Y162721D01*
X375436Y162869D01*
X375373Y163022D01*
X375340Y163073D01*
X375313Y163128D01*
X375218Y163261D01*
X375128Y163400D01*
X375077Y163458D01*
X375051Y163494D01*
X375008Y163537D01*
X374922Y163634D01*
X366726Y171829D01*
X366700Y171851D01*
X366677Y171877D01*
X366527Y171996D01*
X366381Y172118D01*
X366351Y172135D01*
X366324Y172157D01*
X366156Y172247D01*
X365990Y172341D01*
X365957Y172353D01*
X365927Y172369D01*
X365746Y172428D01*
X365566Y172492D01*
X365532Y172498D01*
X365499Y172509D01*
X365310Y172535D01*
X365122Y172566D01*
X365087Y172565D01*
X365053Y172570D01*
X364862Y172562D01*
X364671Y172560D01*
X364637Y172553D01*
X364603Y172552D01*
X364417Y172510D01*
X364229Y172474D01*
X364197Y172461D01*
X364163Y172454D01*
X363987Y172380D01*
X363809Y172312D01*
X363780Y172294D01*
X363748Y172280D01*
X363588Y172177D01*
X363425Y172078D01*
X363399Y172055D01*
X363370Y172036D01*
X363135Y171829D01*
X362012Y170705D01*
X361990Y170679D01*
X361964Y170656D01*
X361845Y170506D01*
X361723Y170360D01*
X361706Y170330D01*
X361684Y170303D01*
X361594Y170135D01*
X361500Y169969D01*
X361488Y169937D01*
X361472Y169906D01*
X361413Y169725D01*
X361349Y169545D01*
X361343Y169511D01*
X361332Y169478D01*
X361306Y169289D01*
X361275Y169101D01*
X361276Y169066D01*
X361271Y169032D01*
X361279Y168841D01*
X361281Y168650D01*
X361288Y168617D01*
X361289Y168582D01*
X361331Y168396D01*
X361367Y168208D01*
X361379Y168176D01*
X361387Y168142D01*
X361460Y167967D01*
X361529Y167788D01*
X361547Y167759D01*
X361561Y167727D01*
X361664Y167567D01*
X361763Y167404D01*
X361786Y167378D01*
X361805Y167349D01*
X361972Y167160D01*
X361975Y167155D01*
X361978Y167152D01*
X362012Y167114D01*
X365516Y163611D01*
X367505Y158809D01*
X367505Y153611D01*
X365516Y148809D01*
X361841Y145134D01*
X357039Y143145D01*
X333841Y143145D01*
X328913Y145187D01*
X328711Y145250D01*
X328509Y145316D01*
X328495Y145318D01*
X328483Y145322D01*
X328273Y145348D01*
X328063Y145377D01*
X328049Y145377D01*
X328036Y145378D01*
X327824Y145367D01*
X327613Y145359D01*
X327600Y145356D01*
X327587Y145355D01*
X327380Y145307D01*
X327173Y145261D01*
X327161Y145256D01*
X327148Y145253D01*
X326954Y145169D01*
X326758Y145088D01*
X326747Y145080D01*
X326734Y145075D01*
X326557Y144958D01*
X326379Y144843D01*
X326368Y144833D01*
X326359Y144827D01*
X326330Y144800D01*
X326145Y144636D01*
X325356Y143848D01*
X325251Y143721D01*
X325139Y143600D01*
X325107Y143549D01*
X325068Y143502D01*
X324986Y143359D01*
X324898Y143221D01*
X324874Y143164D01*
X324844Y143111D01*
X324789Y142956D01*
X324727Y142804D01*
X324714Y142744D01*
X324693Y142687D01*
X324667Y142525D01*
X324632Y142364D01*
X324627Y142287D01*
X324620Y142243D01*
X324621Y142182D01*
X324613Y142052D01*
X324613Y121457D01*
X324627Y121294D01*
X324634Y121129D01*
X324647Y121070D01*
X324653Y121009D01*
X324696Y120850D01*
X324732Y120690D01*
X324755Y120633D01*
X324771Y120574D01*
X324842Y120426D01*
X324905Y120274D01*
X324938Y120223D01*
X324965Y120168D01*
X325060Y120034D01*
X325150Y119896D01*
X325201Y119838D01*
X325227Y119802D01*
X325270Y119759D01*
X325356Y119662D01*
X325424Y119594D01*
X326847Y116159D01*
X326847Y112441D01*
X325424Y109006D01*
X322794Y106376D01*
X319359Y104953D01*
X315641Y104953D01*
X313167Y105978D01*
X313055Y106013D01*
X312947Y106057D01*
X312841Y106080D01*
X312737Y106113D01*
X312621Y106127D01*
X312507Y106152D01*
X312353Y106162D01*
X312291Y106169D01*
X312254Y106168D01*
X312195Y106171D01*
X55219Y106171D01*
X55055Y106157D01*
X54891Y106150D01*
X54831Y106137D01*
X54770Y106131D01*
X54611Y106088D01*
X54451Y106052D01*
X54395Y106029D01*
X54336Y106013D01*
X54188Y105942D01*
X54036Y105879D01*
X53984Y105846D01*
X53929Y105819D01*
X53796Y105724D01*
X53657Y105634D01*
X53600Y105583D01*
X53563Y105557D01*
X53521Y105514D01*
X53423Y105428D01*
X39322Y91327D01*
X39217Y91200D01*
X39105Y91080D01*
X39073Y91028D01*
X39034Y90981D01*
X38952Y90839D01*
X38864Y90700D01*
X38840Y90643D01*
X38810Y90590D01*
X38755Y90436D01*
X38693Y90283D01*
X38680Y90224D01*
X38659Y90166D01*
X38633Y90004D01*
X38598Y89843D01*
X38593Y89766D01*
X38586Y89722D01*
X38587Y89661D01*
X38579Y89531D01*
X38579Y79976D01*
X38581Y79947D01*
X38580Y79920D01*
X38597Y79773D01*
X38598Y79764D01*
X38614Y79553D01*
X38617Y79541D01*
X38619Y79527D01*
X38630Y79484D01*
X38632Y79473D01*
X38650Y79413D01*
X38675Y79322D01*
X38728Y79118D01*
X38734Y79105D01*
X38737Y79093D01*
X38827Y78903D01*
X38917Y78709D01*
X38925Y78698D01*
X38931Y78686D01*
X39054Y78514D01*
X39176Y78340D01*
X39185Y78331D01*
X39193Y78320D01*
X39345Y78171D01*
X39495Y78023D01*
X39506Y78015D01*
X39515Y78006D01*
X39691Y77887D01*
X39865Y77767D01*
X39880Y77760D01*
X39888Y77754D01*
X39918Y77741D01*
X44662Y72996D01*
X46724Y68020D01*
X46738Y67993D01*
X46747Y67965D01*
X46842Y67794D01*
X46932Y67621D01*
X46951Y67597D01*
X46965Y67571D01*
X47089Y67419D01*
X47208Y67265D01*
X47230Y67245D01*
X47250Y67221D01*
X47398Y67094D01*
X47542Y66964D01*
X47568Y66948D01*
X47591Y66928D01*
X47759Y66829D01*
X47924Y66726D01*
X47953Y66715D01*
X47979Y66699D01*
X48161Y66631D01*
X48343Y66559D01*
X48372Y66553D01*
X48401Y66542D01*
X48593Y66508D01*
X48784Y66469D01*
X48814Y66468D01*
X48844Y66463D01*
X49039Y66463D01*
X49234Y66458D01*
X49264Y66463D01*
X49294Y66463D01*
X49485Y66497D01*
X49679Y66527D01*
X49708Y66537D01*
X49738Y66542D01*
X49920Y66610D01*
X50105Y66673D01*
X50131Y66688D01*
X50160Y66699D01*
X50328Y66798D01*
X50498Y66893D01*
X50522Y66912D01*
X50548Y66927D01*
X50695Y67054D01*
X50846Y67178D01*
X50866Y67201D01*
X50889Y67221D01*
X51012Y67372D01*
X51139Y67520D01*
X51154Y67546D01*
X51173Y67570D01*
X51332Y67839D01*
X52207Y69557D01*
X53228Y70962D01*
X54458Y72192D01*
X55863Y73213D01*
X57412Y74002D01*
X58901Y74486D01*
X58901Y63980D01*
X58904Y63946D01*
X58902Y63911D01*
X58915Y63795D01*
X58901Y63560D01*
X58901Y53054D01*
X57412Y53538D01*
X55863Y54327D01*
X54458Y55348D01*
X53228Y56578D01*
X52207Y57983D01*
X51455Y59459D01*
X51439Y59484D01*
X51427Y59512D01*
X51320Y59675D01*
X51216Y59840D01*
X51196Y59863D01*
X51179Y59888D01*
X51045Y60029D01*
X50914Y60173D01*
X50889Y60192D01*
X50868Y60214D01*
X50711Y60329D01*
X50557Y60448D01*
X50530Y60462D01*
X50505Y60480D01*
X50330Y60565D01*
X50157Y60655D01*
X50128Y60664D01*
X50101Y60677D01*
X49913Y60730D01*
X49727Y60788D01*
X49696Y60792D01*
X49667Y60800D01*
X49473Y60820D01*
X49280Y60844D01*
X49250Y60842D01*
X49219Y60845D01*
X49025Y60830D01*
X48830Y60819D01*
X48801Y60812D01*
X48770Y60810D01*
X48582Y60760D01*
X48392Y60715D01*
X48364Y60703D01*
X48335Y60696D01*
X48158Y60614D01*
X47979Y60536D01*
X47954Y60519D01*
X47926Y60507D01*
X47767Y60395D01*
X47604Y60287D01*
X47582Y60266D01*
X47557Y60248D01*
X47421Y60110D01*
X47279Y59975D01*
X47261Y59950D01*
X47240Y59929D01*
X47129Y59769D01*
X47015Y59611D01*
X47001Y59583D01*
X46984Y59558D01*
X46847Y59278D01*
X44662Y54004D01*
X39946Y49288D01*
X33785Y46735D01*
X27115Y46735D01*
X20954Y49288D01*
X16238Y54004D01*
X13685Y60165D01*
X13685Y66835D01*
X16238Y72996D01*
X20997Y77756D01*
X21131Y77824D01*
X21141Y77832D01*
X21153Y77838D01*
X21320Y77968D01*
X21489Y78096D01*
X21498Y78106D01*
X21509Y78114D01*
X21651Y78272D01*
X21795Y78427D01*
X21802Y78438D01*
X21810Y78448D01*
X21922Y78627D01*
X22036Y78807D01*
X22041Y78819D01*
X22048Y78831D01*
X22126Y79027D01*
X22184Y79166D01*
X22186Y79171D01*
X22186Y79172D01*
X22207Y79224D01*
X22210Y79236D01*
X22215Y79249D01*
X22257Y79454D01*
X22272Y79524D01*
X22293Y79609D01*
X22294Y79624D01*
X22302Y79664D01*
X22303Y79680D01*
X22305Y79690D01*
X22306Y79729D01*
X22321Y79976D01*
X22321Y95567D01*
X23559Y98555D01*
X46195Y121191D01*
X49183Y122429D01*
X72369Y122429D01*
X72499Y122440D01*
X72628Y122442D01*
X72722Y122460D01*
X72817Y122469D01*
X72943Y122503D01*
X73071Y122528D01*
X73160Y122562D01*
X73252Y122587D01*
X73369Y122643D01*
X73491Y122690D01*
X73572Y122740D01*
X73658Y122781D01*
X73764Y122856D01*
X73875Y122924D01*
X73947Y122987D01*
X74025Y123043D01*
X74115Y123136D01*
X74213Y123222D01*
X74272Y123297D01*
X74339Y123365D01*
X74411Y123473D01*
X74492Y123575D01*
X74537Y123659D01*
X74591Y123738D01*
X74643Y123857D01*
X74705Y123972D01*
X74734Y124063D01*
X74773Y124150D01*
X74804Y124277D01*
X74844Y124400D01*
X74857Y124495D01*
X74880Y124588D01*
X74888Y124717D01*
X74905Y124846D01*
X74901Y124942D01*
X74907Y125037D01*
X74892Y125166D01*
X74887Y125296D01*
X74866Y125389D01*
X74855Y125484D01*
X74817Y125609D01*
X74789Y125736D01*
X74753Y125824D01*
X74725Y125915D01*
X74666Y126031D01*
X74616Y126151D01*
X74564Y126231D01*
X74520Y126317D01*
X74442Y126420D01*
X74371Y126529D01*
X74285Y126627D01*
X74248Y126675D01*
X74216Y126706D01*
X74164Y126764D01*
X68576Y132352D01*
X68450Y132457D01*
X68329Y132569D01*
X68278Y132601D01*
X68231Y132640D01*
X68088Y132722D01*
X67950Y132810D01*
X67893Y132834D01*
X67840Y132864D01*
X67685Y132919D01*
X67533Y132981D01*
X67473Y132994D01*
X67416Y133015D01*
X67253Y133041D01*
X67093Y133076D01*
X67016Y133081D01*
X66972Y133088D01*
X66911Y133087D01*
X66781Y133095D01*
X60151Y133095D01*
X58658Y133714D01*
X57514Y134858D01*
X56895Y136351D01*
X56895Y155749D01*
X57514Y157242D01*
X58658Y158386D01*
X60151Y159005D01*
X79549Y159005D01*
X81042Y158386D01*
X82186Y157242D01*
X82470Y156556D01*
X82508Y156483D01*
X82538Y156406D01*
X82612Y156284D01*
X82679Y156157D01*
X82729Y156092D01*
X82772Y156022D01*
X82867Y155914D01*
X82954Y155801D01*
X83016Y155746D01*
X83070Y155684D01*
X83182Y155595D01*
X83289Y155499D01*
X83359Y155456D01*
X83423Y155405D01*
X83549Y155337D01*
X83671Y155262D01*
X83748Y155231D01*
X83820Y155192D01*
X83956Y155148D01*
X84089Y155095D01*
X84170Y155078D01*
X84248Y155053D01*
X84390Y155033D01*
X84530Y155005D01*
X84613Y155003D01*
X84694Y154992D01*
X84838Y154997D01*
X84981Y154994D01*
X85062Y155007D01*
X85144Y155010D01*
X85284Y155041D01*
X85426Y155063D01*
X85503Y155090D01*
X85584Y155108D01*
X85716Y155163D01*
X85851Y155209D01*
X85923Y155249D01*
X85999Y155281D01*
X86120Y155359D01*
X86245Y155429D01*
X86308Y155481D01*
X86378Y155525D01*
X86562Y155689D01*
X86593Y155714D01*
X86600Y155722D01*
X86612Y155732D01*
X87912Y157032D01*
X92673Y159005D01*
X97827Y159005D01*
X102588Y157033D01*
X106232Y153388D01*
X106538Y152651D01*
X106564Y152601D01*
X106583Y152548D01*
X106665Y152407D01*
X106730Y152279D01*
X106737Y152270D01*
X106746Y152252D01*
X106781Y152207D01*
X106809Y152158D01*
X106919Y152029D01*
X106952Y151986D01*
X107002Y151920D01*
X107006Y151916D01*
X107022Y151896D01*
X107064Y151858D01*
X107101Y151815D01*
X107231Y151707D01*
X107332Y151616D01*
X107334Y151615D01*
X107356Y151594D01*
X107404Y151564D01*
X107448Y151528D01*
X107595Y151445D01*
X107739Y151356D01*
X107791Y151335D01*
X107840Y151308D01*
X108000Y151252D01*
X108157Y151190D01*
X108212Y151178D01*
X108266Y151160D01*
X108433Y151133D01*
X108598Y151099D01*
X108655Y151098D01*
X108710Y151089D01*
X108824Y151092D01*
X108882Y151088D01*
X108887Y151088D01*
X108927Y151091D01*
X109048Y151089D01*
X109104Y151097D01*
X109160Y151098D01*
X109285Y151123D01*
X109336Y151128D01*
X109380Y151140D01*
X109493Y151157D01*
X109547Y151176D01*
X109602Y151187D01*
X109714Y151231D01*
X109770Y151246D01*
X109818Y151269D01*
X109919Y151304D01*
X109968Y151331D01*
X110021Y151352D01*
X110117Y151411D01*
X110177Y151440D01*
X110226Y151475D01*
X110312Y151523D01*
X110356Y151559D01*
X110404Y151588D01*
X110481Y151658D01*
X110543Y151702D01*
X110591Y151752D01*
X110661Y151808D01*
X110697Y151851D01*
X110739Y151889D01*
X110819Y151986D01*
X110857Y152025D01*
X110883Y152063D01*
X110938Y152130D01*
X111931Y153497D01*
X113203Y154769D01*
X114659Y155826D01*
X116262Y156643D01*
X117973Y157199D01*
X118111Y157221D01*
X118111Y146050D01*
X118111Y134879D01*
X117973Y134901D01*
X116262Y135457D01*
X114659Y136274D01*
X113203Y137331D01*
X111931Y138603D01*
X110938Y139970D01*
X110901Y140013D01*
X110870Y140060D01*
X110754Y140182D01*
X110642Y140309D01*
X110598Y140345D01*
X110559Y140386D01*
X110423Y140485D01*
X110291Y140591D01*
X110242Y140618D01*
X110196Y140651D01*
X110044Y140725D01*
X109896Y140806D01*
X109842Y140824D01*
X109791Y140849D01*
X109629Y140895D01*
X109468Y140949D01*
X109413Y140957D01*
X109358Y140972D01*
X109190Y140989D01*
X109023Y141013D01*
X108967Y141011D01*
X108910Y141017D01*
X108742Y141003D01*
X108573Y140998D01*
X108518Y140986D01*
X108461Y140981D01*
X108298Y140939D01*
X108133Y140903D01*
X108080Y140882D01*
X108026Y140867D01*
X107872Y140796D01*
X107716Y140732D01*
X107668Y140702D01*
X107617Y140678D01*
X107479Y140581D01*
X107336Y140490D01*
X107295Y140452D01*
X107248Y140420D01*
X107129Y140300D01*
X107005Y140185D01*
X106971Y140140D01*
X106931Y140100D01*
X106835Y139961D01*
X106733Y139827D01*
X106707Y139776D01*
X106675Y139730D01*
X106538Y139449D01*
X106232Y138712D01*
X102588Y135067D01*
X100426Y134172D01*
X100268Y134089D01*
X100108Y134013D01*
X100070Y133986D01*
X100027Y133963D01*
X99886Y133854D01*
X99742Y133751D01*
X99709Y133717D01*
X99671Y133688D01*
X99552Y133556D01*
X99428Y133429D01*
X99401Y133389D01*
X99369Y133353D01*
X99276Y133203D01*
X99176Y133056D01*
X99157Y133012D01*
X99132Y132971D01*
X99066Y132806D01*
X98994Y132644D01*
X98983Y132597D01*
X98965Y132553D01*
X98929Y132379D01*
X98887Y132206D01*
X98884Y132159D01*
X98875Y132112D01*
X98870Y131934D01*
X98860Y131757D01*
X98865Y131709D01*
X98864Y131662D01*
X98891Y131486D01*
X98912Y131310D01*
X98926Y131264D01*
X98933Y131217D01*
X98991Y131049D01*
X99042Y130879D01*
X99064Y130836D01*
X99079Y130791D01*
X99166Y130636D01*
X99246Y130477D01*
X99275Y130439D01*
X99299Y130398D01*
X99411Y130260D01*
X99518Y130119D01*
X99554Y130086D01*
X99584Y130049D01*
X99719Y129934D01*
X99849Y129813D01*
X99890Y129788D01*
X99926Y129757D01*
X100079Y129667D01*
X100229Y129572D01*
X100274Y129553D01*
X100315Y129529D01*
X100481Y129468D01*
X100646Y129401D01*
X100693Y129391D01*
X100737Y129374D01*
X100912Y129343D01*
X101086Y129306D01*
X101145Y129302D01*
X101181Y129296D01*
X101244Y129296D01*
X101398Y129287D01*
X139902Y129287D01*
X140079Y129302D01*
X140256Y129312D01*
X140303Y129322D01*
X140351Y129327D01*
X140522Y129373D01*
X140695Y129414D01*
X140739Y129433D01*
X140785Y129445D01*
X140945Y129521D01*
X141109Y129592D01*
X141148Y129618D01*
X141192Y129639D01*
X141336Y129742D01*
X141484Y129840D01*
X141519Y129873D01*
X141558Y129901D01*
X141682Y130028D01*
X141810Y130151D01*
X141838Y130189D01*
X141872Y130223D01*
X141971Y130371D01*
X142076Y130514D01*
X142097Y130557D01*
X142124Y130596D01*
X142196Y130759D01*
X142274Y130918D01*
X142287Y130964D01*
X142306Y131008D01*
X142348Y131181D01*
X142397Y131352D01*
X142401Y131399D01*
X142413Y131446D01*
X142424Y131623D01*
X142441Y131800D01*
X142437Y131847D01*
X142440Y131895D01*
X142420Y132072D01*
X142406Y132249D01*
X142394Y132295D01*
X142388Y132342D01*
X142337Y132513D01*
X142292Y132684D01*
X142272Y132727D01*
X142258Y132773D01*
X142177Y132932D01*
X142103Y133093D01*
X142075Y133132D01*
X142054Y133175D01*
X141946Y133316D01*
X141844Y133462D01*
X141811Y133495D01*
X141782Y133533D01*
X141651Y133654D01*
X141525Y133779D01*
X141486Y133806D01*
X141451Y133838D01*
X141301Y133934D01*
X141155Y134035D01*
X141101Y134061D01*
X141071Y134080D01*
X141012Y134104D01*
X140874Y134172D01*
X138712Y135067D01*
X135068Y138712D01*
X134762Y139449D01*
X134736Y139499D01*
X134717Y139552D01*
X134632Y139698D01*
X134554Y139848D01*
X134519Y139893D01*
X134491Y139942D01*
X134381Y140071D01*
X134278Y140204D01*
X134236Y140242D01*
X134199Y140285D01*
X134069Y140393D01*
X133944Y140506D01*
X133896Y140536D01*
X133852Y140572D01*
X133705Y140655D01*
X133561Y140744D01*
X133509Y140765D01*
X133460Y140792D01*
X133300Y140848D01*
X133143Y140910D01*
X133088Y140922D01*
X133034Y140940D01*
X132867Y140967D01*
X132702Y141001D01*
X132645Y141002D01*
X132590Y141011D01*
X132421Y141007D01*
X132252Y141011D01*
X132196Y141003D01*
X132140Y141002D01*
X131974Y140968D01*
X131807Y140943D01*
X131753Y140924D01*
X131698Y140913D01*
X131541Y140851D01*
X131381Y140796D01*
X131332Y140769D01*
X131279Y140748D01*
X131135Y140659D01*
X130988Y140577D01*
X130944Y140541D01*
X130896Y140512D01*
X130770Y140398D01*
X130639Y140292D01*
X130603Y140249D01*
X130561Y140211D01*
X130362Y139970D01*
X129369Y138603D01*
X128097Y137331D01*
X126641Y136274D01*
X125038Y135457D01*
X123327Y134901D01*
X123189Y134879D01*
X123189Y146050D01*
X123189Y157221D01*
X123327Y157199D01*
X125038Y156643D01*
X126641Y155826D01*
X128097Y154769D01*
X129369Y153497D01*
X130362Y152130D01*
X130399Y152087D01*
X130430Y152040D01*
X130488Y151980D01*
X130533Y151920D01*
X130594Y151864D01*
X130658Y151791D01*
X130702Y151755D01*
X130741Y151714D01*
X130815Y151660D01*
X130864Y151615D01*
X130926Y151576D01*
X131009Y151509D01*
X131058Y151482D01*
X131104Y151449D01*
X131195Y151404D01*
X131244Y151373D01*
X131303Y151349D01*
X131404Y151294D01*
X131458Y151276D01*
X131509Y151251D01*
X131614Y151221D01*
X131661Y151202D01*
X131715Y151190D01*
X131832Y151151D01*
X131887Y151143D01*
X131942Y151128D01*
X132058Y151116D01*
X132101Y151107D01*
X132166Y151103D01*
X132277Y151087D01*
X132333Y151089D01*
X132390Y151083D01*
X132558Y151097D01*
X132727Y151102D01*
X132782Y151114D01*
X132839Y151119D01*
X133002Y151161D01*
X133167Y151197D01*
X133220Y151218D01*
X133274Y151233D01*
X133428Y151304D01*
X133584Y151368D01*
X133632Y151398D01*
X133683Y151422D01*
X133821Y151519D01*
X133964Y151610D01*
X134005Y151648D01*
X134052Y151680D01*
X134072Y151701D01*
X134074Y151702D01*
X134094Y151723D01*
X134171Y151800D01*
X134295Y151915D01*
X134329Y151960D01*
X134369Y152000D01*
X134383Y152020D01*
X134388Y152025D01*
X134450Y152118D01*
X134465Y152139D01*
X134567Y152273D01*
X134593Y152324D01*
X134625Y152370D01*
X134635Y152391D01*
X134640Y152398D01*
X134653Y152427D01*
X134762Y152651D01*
X135068Y153388D01*
X138712Y157033D01*
X143473Y159005D01*
X148627Y159005D01*
X153388Y157032D01*
X156954Y153466D01*
X156981Y153444D01*
X157004Y153418D01*
X157153Y153300D01*
X157300Y153177D01*
X157330Y153160D01*
X157357Y153139D01*
X157525Y153049D01*
X157691Y152954D01*
X157723Y152942D01*
X157754Y152926D01*
X157935Y152867D01*
X158115Y152803D01*
X158149Y152798D01*
X158182Y152787D01*
X158371Y152761D01*
X158559Y152730D01*
X158594Y152730D01*
X158628Y152725D01*
X158819Y152733D01*
X159009Y152736D01*
X159044Y152742D01*
X159078Y152744D01*
X159264Y152785D01*
X159452Y152821D01*
X159484Y152834D01*
X159518Y152841D01*
X159694Y152915D01*
X159872Y152984D01*
X159901Y153002D01*
X159933Y153015D01*
X160094Y153119D01*
X160256Y153218D01*
X160282Y153241D01*
X160311Y153259D01*
X160546Y153466D01*
X164112Y157033D01*
X168873Y159005D01*
X174027Y159005D01*
X178788Y157033D01*
X182433Y153388D01*
X184405Y148627D01*
X184405Y143473D01*
X182433Y138712D01*
X178788Y135067D01*
X176626Y134172D01*
X176468Y134089D01*
X176308Y134013D01*
X176270Y133986D01*
X176227Y133963D01*
X176086Y133854D01*
X175942Y133751D01*
X175909Y133717D01*
X175871Y133688D01*
X175752Y133556D01*
X175628Y133429D01*
X175601Y133389D01*
X175569Y133353D01*
X175476Y133203D01*
X175376Y133056D01*
X175357Y133012D01*
X175332Y132971D01*
X175266Y132806D01*
X175194Y132644D01*
X175183Y132597D01*
X175165Y132553D01*
X175129Y132379D01*
X175087Y132206D01*
X175084Y132159D01*
X175075Y132112D01*
X175070Y131934D01*
X175060Y131757D01*
X175065Y131709D01*
X175064Y131662D01*
X175091Y131486D01*
X175112Y131310D01*
X175126Y131264D01*
X175133Y131217D01*
X175191Y131049D01*
X175242Y130879D01*
X175264Y130836D01*
X175279Y130791D01*
X175366Y130636D01*
X175446Y130477D01*
X175475Y130439D01*
X175499Y130398D01*
X175611Y130260D01*
X175718Y130119D01*
X175754Y130086D01*
X175784Y130049D01*
X175919Y129934D01*
X176049Y129813D01*
X176090Y129788D01*
X176126Y129757D01*
X176279Y129667D01*
X176429Y129572D01*
X176474Y129553D01*
X176515Y129529D01*
X176681Y129468D01*
X176846Y129401D01*
X176893Y129391D01*
X176937Y129374D01*
X177112Y129343D01*
X177286Y129306D01*
X177345Y129302D01*
X177381Y129296D01*
X177444Y129296D01*
X177598Y129287D01*
X240263Y129287D01*
X240427Y129301D01*
X240591Y129308D01*
X240651Y129321D01*
X240711Y129327D01*
X240870Y129370D01*
X241031Y129406D01*
X241087Y129429D01*
X241146Y129445D01*
X241294Y129516D01*
X241446Y129579D01*
X241497Y129612D01*
X241552Y129639D01*
X241686Y129734D01*
X241824Y129824D01*
X241882Y129875D01*
X241918Y129901D01*
X241961Y129944D01*
X242058Y130030D01*
X270060Y158032D01*
X270165Y158158D01*
X270277Y158279D01*
X270309Y158330D01*
X270348Y158377D01*
X270430Y158520D01*
X270518Y158658D01*
X270542Y158715D01*
X270572Y158768D01*
X270627Y158923D01*
X270689Y159075D01*
X270702Y159135D01*
X270723Y159192D01*
X270749Y159355D01*
X270784Y159515D01*
X270789Y159592D01*
X270796Y159636D01*
X270795Y159698D01*
X270803Y159827D01*
X270803Y160460D01*
X272112Y163620D01*
X274530Y166038D01*
X277690Y167347D01*
X281110Y167347D01*
X284270Y166038D01*
X286688Y163620D01*
X287997Y160460D01*
X287997Y157040D01*
X286688Y153880D01*
X284270Y151462D01*
X281110Y150153D01*
X280477Y150153D01*
X280313Y150139D01*
X280149Y150132D01*
X280089Y150119D01*
X280029Y150113D01*
X279870Y150070D01*
X279709Y150034D01*
X279653Y150011D01*
X279594Y149995D01*
X279446Y149924D01*
X279294Y149861D01*
X279243Y149828D01*
X279188Y149801D01*
X279054Y149706D01*
X278916Y149616D01*
X278858Y149565D01*
X278822Y149539D01*
X278779Y149496D01*
X278682Y149410D01*
X256036Y126764D01*
X255952Y126664D01*
X255861Y126571D01*
X255808Y126491D01*
X255747Y126418D01*
X255682Y126305D01*
X255609Y126198D01*
X255571Y126110D01*
X255523Y126027D01*
X255480Y125905D01*
X255427Y125786D01*
X255404Y125693D01*
X255372Y125603D01*
X255351Y125474D01*
X255320Y125348D01*
X255315Y125253D01*
X255299Y125159D01*
X255301Y125028D01*
X255293Y124899D01*
X255304Y124804D01*
X255305Y124708D01*
X255330Y124581D01*
X255345Y124452D01*
X255373Y124360D01*
X255391Y124266D01*
X255438Y124145D01*
X255475Y124021D01*
X255519Y123936D01*
X255553Y123846D01*
X255621Y123735D01*
X255680Y123619D01*
X255737Y123543D01*
X255787Y123462D01*
X255873Y123364D01*
X255952Y123261D01*
X256022Y123196D01*
X256085Y123124D01*
X256187Y123044D01*
X256283Y122955D01*
X256363Y122904D01*
X256438Y122845D01*
X256553Y122784D01*
X256662Y122714D01*
X256751Y122677D01*
X256835Y122632D01*
X256959Y122592D01*
X257079Y122543D01*
X257172Y122523D01*
X257263Y122493D01*
X257392Y122475D01*
X257519Y122448D01*
X257649Y122440D01*
X257709Y122432D01*
X257754Y122433D01*
X257831Y122429D01*
X307848Y122429D01*
X307883Y122432D01*
X307917Y122430D01*
X308106Y122452D01*
X308297Y122469D01*
X308330Y122478D01*
X308364Y122482D01*
X308547Y122537D01*
X308731Y122587D01*
X308762Y122602D01*
X308795Y122612D01*
X308966Y122699D01*
X309138Y122781D01*
X309166Y122801D01*
X309197Y122816D01*
X309349Y122932D01*
X309504Y123043D01*
X309528Y123068D01*
X309555Y123088D01*
X309684Y123228D01*
X309818Y123365D01*
X309837Y123394D01*
X309861Y123420D01*
X309963Y123581D01*
X310070Y123738D01*
X310084Y123770D01*
X310102Y123799D01*
X310175Y123976D01*
X310252Y124150D01*
X310260Y124184D01*
X310273Y124216D01*
X310313Y124403D01*
X310359Y124588D01*
X310361Y124622D01*
X310368Y124656D01*
X310387Y124968D01*
X310387Y147465D01*
X311470Y150079D01*
X323631Y162240D01*
X324066Y162420D01*
X324212Y162496D01*
X324361Y162565D01*
X324411Y162600D01*
X324465Y162629D01*
X324595Y162729D01*
X324730Y162824D01*
X324773Y162867D01*
X324821Y162904D01*
X324931Y163026D01*
X325047Y163143D01*
X325082Y163193D01*
X325123Y163239D01*
X325210Y163378D01*
X325303Y163514D01*
X325337Y163583D01*
X325338Y163584D01*
X328868Y167114D01*
X328890Y167141D01*
X328916Y167164D01*
X328981Y167246D01*
X328995Y167260D01*
X329010Y167283D01*
X329035Y167313D01*
X329157Y167460D01*
X329174Y167490D01*
X329196Y167517D01*
X329286Y167685D01*
X329380Y167851D01*
X329392Y167883D01*
X329408Y167914D01*
X329467Y168095D01*
X329531Y168275D01*
X329537Y168309D01*
X329548Y168342D01*
X329574Y168531D01*
X329605Y168719D01*
X329604Y168754D01*
X329609Y168788D01*
X329601Y168979D01*
X329599Y169169D01*
X329592Y169204D01*
X329591Y169238D01*
X329549Y169424D01*
X329513Y169612D01*
X329501Y169644D01*
X329493Y169678D01*
X329419Y169854D01*
X329351Y170032D01*
X329333Y170061D01*
X329319Y170093D01*
X329216Y170254D01*
X329117Y170416D01*
X329094Y170442D01*
X329075Y170471D01*
X328868Y170706D01*
X325364Y174209D01*
X323375Y179011D01*
X323375Y184209D01*
X325364Y189011D01*
X328868Y192514D01*
X328890Y192541D01*
X328916Y192564D01*
X328982Y192647D01*
X328987Y192653D01*
X328994Y192662D01*
X329035Y192713D01*
X329157Y192860D01*
X329174Y192890D01*
X329196Y192917D01*
X329286Y193085D01*
X329380Y193251D01*
X329392Y193283D01*
X329408Y193314D01*
X329467Y193495D01*
X329531Y193675D01*
X329537Y193709D01*
X329548Y193742D01*
X329574Y193931D01*
X329605Y194119D01*
X329604Y194154D01*
X329609Y194188D01*
X329601Y194379D01*
X329599Y194569D01*
X329592Y194604D01*
X329591Y194638D01*
X329549Y194824D01*
X329513Y195012D01*
X329501Y195044D01*
X329493Y195078D01*
X329419Y195254D01*
X329351Y195432D01*
X329333Y195461D01*
X329319Y195493D01*
X329216Y195654D01*
X329117Y195816D01*
X329094Y195842D01*
X329075Y195871D01*
X328868Y196106D01*
X325364Y199609D01*
X323375Y204411D01*
X323375Y209609D01*
X325364Y214411D01*
X329039Y218086D01*
X329616Y218324D01*
X329666Y218351D01*
X329719Y218370D01*
X329865Y218455D01*
X330015Y218533D01*
X330059Y218567D01*
X330108Y218596D01*
X330237Y218705D01*
X330371Y218809D01*
X330408Y218850D01*
X330452Y218887D01*
X330559Y219018D01*
X330672Y219143D01*
X330702Y219191D01*
X330738Y219234D01*
X330821Y219382D01*
X330910Y219525D01*
X330931Y219578D01*
X330959Y219627D01*
X331014Y219786D01*
X331077Y219944D01*
X331088Y219999D01*
X331107Y220052D01*
X331133Y220219D01*
X331167Y220385D01*
X331168Y220441D01*
X331177Y220497D01*
X331174Y220666D01*
X331178Y220835D01*
X331169Y220891D01*
X331168Y220947D01*
X331135Y221112D01*
X331109Y221280D01*
X331091Y221333D01*
X331080Y221388D01*
X331018Y221545D01*
X330963Y221706D01*
X330935Y221755D01*
X330914Y221807D01*
X330826Y221951D01*
X330743Y222099D01*
X330708Y222143D01*
X330678Y222190D01*
X330565Y222316D01*
X330458Y222447D01*
X330415Y222484D01*
X330377Y222526D01*
X330136Y222725D01*
X328922Y223607D01*
X327637Y224892D01*
X326569Y226361D01*
X325745Y227980D01*
X325280Y229411D01*
X344980Y229411D01*
X345014Y229414D01*
X345049Y229412D01*
X345238Y229434D01*
X345428Y229451D01*
X345450Y229456D01*
X345520Y229439D01*
X345554Y229437D01*
X345588Y229430D01*
X345900Y229411D01*
X365600Y229411D01*
X365135Y227980D01*
X364311Y226361D01*
X363243Y224892D01*
X361958Y223607D01*
X360744Y222725D01*
X360701Y222688D01*
X360654Y222657D01*
X360532Y222540D01*
X360404Y222429D01*
X360369Y222385D01*
X360328Y222346D01*
X360228Y222210D01*
X360122Y222078D01*
X360095Y222028D01*
X360062Y221983D01*
X359988Y221831D01*
X359907Y221682D01*
X359889Y221629D01*
X359865Y221578D01*
X359818Y221415D01*
X359765Y221255D01*
X359757Y221199D01*
X359742Y221145D01*
X359725Y220976D01*
X359701Y220809D01*
X359703Y220753D01*
X359697Y220697D01*
X359710Y220528D01*
X359716Y220359D01*
X359728Y220304D01*
X359732Y220248D01*
X359775Y220084D01*
X359811Y219919D01*
X359832Y219867D01*
X359846Y219812D01*
X359917Y219659D01*
X359981Y219502D01*
X360012Y219455D01*
X360035Y219404D01*
X360133Y219265D01*
X360223Y219123D01*
X360261Y219081D01*
X360294Y219035D01*
X360414Y218916D01*
X360528Y218791D01*
X360573Y218757D01*
X360613Y218718D01*
X360752Y218621D01*
X360887Y218519D01*
X360937Y218494D01*
X360984Y218462D01*
X361264Y218324D01*
X361841Y218086D01*
X365516Y214411D01*
X367505Y209609D01*
X367505Y204411D01*
X366522Y202039D01*
X366458Y201835D01*
X366393Y201635D01*
X366391Y201622D01*
X366387Y201609D01*
X366361Y201398D01*
X366332Y201189D01*
X366332Y201176D01*
X366331Y201163D01*
X366341Y200952D01*
X366350Y200739D01*
X366353Y200726D01*
X366354Y200713D01*
X366402Y200507D01*
X366448Y200300D01*
X366453Y200287D01*
X366456Y200275D01*
X366539Y200080D01*
X366621Y199884D01*
X366629Y199873D01*
X366634Y199861D01*
X366750Y199685D01*
X366866Y199506D01*
X366876Y199494D01*
X366882Y199485D01*
X366909Y199457D01*
X367073Y199272D01*
X391873Y174472D01*
X392685Y172511D01*
X392685Y98512D01*
X392699Y98348D01*
X392706Y98183D01*
X392719Y98124D01*
X392725Y98063D01*
X392768Y97904D01*
X392804Y97744D01*
X392827Y97687D01*
X392843Y97629D01*
X392914Y97481D01*
X392977Y97328D01*
X393010Y97277D01*
X393037Y97222D01*
X393132Y97089D01*
X393222Y96950D01*
X393273Y96892D01*
X393299Y96856D01*
X393342Y96813D01*
X393428Y96716D01*
X410406Y79738D01*
X410532Y79633D01*
X410653Y79521D01*
X410705Y79489D01*
X410751Y79450D01*
X410894Y79368D01*
X411033Y79280D01*
X411089Y79256D01*
X411142Y79226D01*
X411297Y79171D01*
X411449Y79109D01*
X411509Y79096D01*
X411567Y79075D01*
X411729Y79049D01*
X411890Y79014D01*
X411967Y79009D01*
X412011Y79002D01*
X412072Y79003D01*
X412202Y78995D01*
X508000Y78995D01*
X508035Y78998D01*
X508069Y78996D01*
X508258Y79018D01*
X508449Y79035D01*
X508482Y79044D01*
X508516Y79048D01*
X508699Y79103D01*
X508883Y79153D01*
X508914Y79168D01*
X508947Y79178D01*
X509118Y79265D01*
X509290Y79347D01*
X509318Y79367D01*
X509349Y79382D01*
X509501Y79498D01*
X509656Y79609D01*
X509680Y79633D01*
X509707Y79654D01*
X509837Y79795D01*
X509970Y79931D01*
X509989Y79960D01*
X510013Y79986D01*
X510115Y80147D01*
X510222Y80304D01*
X510236Y80336D01*
X510254Y80365D01*
X510327Y80542D01*
X510404Y80716D01*
X510412Y80750D01*
X510425Y80782D01*
X510465Y80969D01*
X510511Y81154D01*
X510513Y81188D01*
X510520Y81222D01*
X510539Y81534D01*
X510539Y245110D01*
X510536Y245145D01*
X510538Y245179D01*
X510516Y245368D01*
X510499Y245559D01*
X510490Y245592D01*
X510486Y245626D01*
X510431Y245809D01*
X510381Y245993D01*
X510366Y246024D01*
X510356Y246057D01*
X510269Y246228D01*
X510187Y246400D01*
X510167Y246428D01*
X510152Y246459D01*
X510036Y246611D01*
X509925Y246766D01*
X509900Y246790D01*
X509880Y246817D01*
X509739Y246946D01*
X509603Y247080D01*
X509574Y247099D01*
X509548Y247123D01*
X509387Y247225D01*
X509230Y247332D01*
X509198Y247346D01*
X509169Y247364D01*
X508992Y247437D01*
X508818Y247514D01*
X508784Y247522D01*
X508752Y247535D01*
X508565Y247575D01*
X508380Y247621D01*
X508346Y247623D01*
X508312Y247630D01*
X508000Y247649D01*
X360529Y247649D01*
X360451Y247642D01*
X360373Y247644D01*
X360227Y247622D01*
X360080Y247609D01*
X360005Y247589D01*
X359927Y247577D01*
X359788Y247530D01*
X359646Y247491D01*
X359575Y247457D01*
X359501Y247432D01*
X359372Y247361D01*
X359239Y247297D01*
X359176Y247252D01*
X359107Y247214D01*
X358993Y247121D01*
X358873Y247035D01*
X358818Y246979D01*
X358758Y246930D01*
X358662Y246818D01*
X358559Y246713D01*
X358515Y246648D01*
X358464Y246589D01*
X358389Y246462D01*
X358307Y246340D01*
X358275Y246268D01*
X358236Y246201D01*
X358184Y246063D01*
X358125Y245928D01*
X358106Y245852D01*
X358079Y245779D01*
X358053Y245633D01*
X358018Y245490D01*
X358013Y245412D01*
X357999Y245335D01*
X357999Y245188D01*
X357990Y245041D01*
X357999Y244963D01*
X357999Y244885D01*
X358025Y244740D01*
X358042Y244594D01*
X358065Y244519D01*
X358079Y244442D01*
X358130Y244304D01*
X358173Y244163D01*
X358208Y244093D01*
X358235Y244020D01*
X358310Y243893D01*
X358377Y243761D01*
X358424Y243699D01*
X358464Y243632D01*
X358560Y243520D01*
X358649Y243403D01*
X358707Y243350D01*
X358757Y243290D01*
X358872Y243198D01*
X358980Y243098D01*
X359046Y243055D01*
X359107Y243006D01*
X359334Y242872D01*
X359360Y242856D01*
X359367Y242853D01*
X359376Y242847D01*
X360489Y242281D01*
X361958Y241213D01*
X363243Y239928D01*
X364311Y238459D01*
X365135Y236840D01*
X365600Y235409D01*
X345900Y235409D01*
X345866Y235406D01*
X345831Y235408D01*
X345642Y235386D01*
X345452Y235369D01*
X345430Y235364D01*
X345360Y235381D01*
X345326Y235383D01*
X345292Y235390D01*
X344980Y235409D01*
X325280Y235409D01*
X325745Y236840D01*
X326569Y238459D01*
X327637Y239928D01*
X328922Y241213D01*
X330391Y242281D01*
X331504Y242848D01*
X331570Y242889D01*
X331641Y242923D01*
X331761Y243008D01*
X331886Y243087D01*
X331944Y243139D01*
X332007Y243185D01*
X332110Y243290D01*
X332219Y243389D01*
X332266Y243451D01*
X332321Y243507D01*
X332404Y243629D01*
X332493Y243746D01*
X332529Y243816D01*
X332573Y243880D01*
X332633Y244015D01*
X332701Y244146D01*
X332724Y244221D01*
X332755Y244292D01*
X332790Y244436D01*
X332834Y244576D01*
X332843Y244654D01*
X332862Y244730D01*
X332871Y244877D01*
X332889Y245023D01*
X332885Y245101D01*
X332890Y245179D01*
X332873Y245326D01*
X332865Y245473D01*
X332847Y245549D01*
X332838Y245626D01*
X332795Y245768D01*
X332761Y245911D01*
X332730Y245983D01*
X332707Y246057D01*
X332640Y246189D01*
X332582Y246324D01*
X332538Y246389D01*
X332503Y246459D01*
X332414Y246576D01*
X332332Y246699D01*
X332278Y246755D01*
X332231Y246817D01*
X332122Y246917D01*
X332020Y247024D01*
X331957Y247069D01*
X331900Y247123D01*
X331775Y247202D01*
X331656Y247288D01*
X331586Y247322D01*
X331520Y247364D01*
X331384Y247420D01*
X331251Y247485D01*
X331176Y247506D01*
X331103Y247535D01*
X330960Y247566D01*
X330817Y247606D01*
X330740Y247614D01*
X330663Y247630D01*
X330399Y247646D01*
X330369Y247649D01*
X330362Y247649D01*
X330351Y247649D01*
X8890Y247649D01*
X8855Y247646D01*
X8821Y247648D01*
X8632Y247626D01*
X8441Y247609D01*
X8408Y247600D01*
X8374Y247596D01*
X8191Y247541D01*
X8007Y247491D01*
X7976Y247476D01*
X7943Y247466D01*
X7772Y247379D01*
X7600Y247297D01*
X7572Y247277D01*
X7541Y247262D01*
X7389Y247146D01*
X7234Y247035D01*
X7210Y247010D01*
X7183Y246990D01*
X7054Y246850D01*
X6920Y246713D01*
X6901Y246684D01*
X6877Y246658D01*
X6775Y246497D01*
X6668Y246340D01*
X6654Y246308D01*
X6636Y246279D01*
X6563Y246102D01*
X6486Y245928D01*
X6478Y245894D01*
X6465Y245862D01*
X6425Y245675D01*
X6379Y245490D01*
X6377Y245456D01*
X6370Y245422D01*
X6351Y245110D01*
X6351Y8890D01*
X6354Y8855D01*
X6352Y8821D01*
X6374Y8632D01*
X6391Y8441D01*
X6400Y8408D01*
X6404Y8374D01*
X6459Y8191D01*
X6509Y8007D01*
X6524Y7976D01*
X6534Y7943D01*
X6621Y7772D01*
X6703Y7600D01*
X6723Y7572D01*
X6738Y7541D01*
X6854Y7389D01*
X6965Y7234D01*
X6990Y7210D01*
X7010Y7183D01*
X7150Y7054D01*
X7287Y6920D01*
X7316Y6901D01*
X7342Y6877D01*
X7503Y6775D01*
X7660Y6668D01*
X7692Y6654D01*
X7721Y6636D01*
X7898Y6563D01*
X8072Y6486D01*
X8106Y6478D01*
X8138Y6465D01*
X8325Y6425D01*
X8510Y6379D01*
X8544Y6377D01*
X8578Y6370D01*
X8890Y6351D01*
X508000Y6351D01*
X508035Y6354D01*
G37*
G36*
X704885Y6354D02*
X704885Y6354D01*
X704919Y6352D01*
X705108Y6374D01*
X705299Y6391D01*
X705332Y6400D01*
X705366Y6404D01*
X705549Y6459D01*
X705733Y6509D01*
X705764Y6524D01*
X705797Y6534D01*
X705968Y6621D01*
X706140Y6703D01*
X706168Y6723D01*
X706199Y6738D01*
X706351Y6854D01*
X706506Y6965D01*
X706530Y6990D01*
X706557Y7010D01*
X706686Y7150D01*
X706820Y7287D01*
X706839Y7316D01*
X706863Y7342D01*
X706965Y7503D01*
X707072Y7660D01*
X707086Y7692D01*
X707104Y7721D01*
X707177Y7898D01*
X707254Y8072D01*
X707262Y8106D01*
X707275Y8138D01*
X707315Y8325D01*
X707361Y8510D01*
X707363Y8544D01*
X707370Y8578D01*
X707389Y8890D01*
X707389Y144998D01*
X714792Y152401D01*
X782320Y152401D01*
X782355Y152404D01*
X782389Y152402D01*
X782578Y152424D01*
X782769Y152441D01*
X782802Y152450D01*
X782836Y152454D01*
X783019Y152509D01*
X783203Y152559D01*
X783234Y152574D01*
X783267Y152584D01*
X783438Y152671D01*
X783610Y152753D01*
X783638Y152773D01*
X783669Y152788D01*
X783821Y152904D01*
X783976Y153015D01*
X784000Y153040D01*
X784027Y153060D01*
X784156Y153201D01*
X784290Y153337D01*
X784309Y153366D01*
X784333Y153392D01*
X784435Y153553D01*
X784542Y153710D01*
X784556Y153742D01*
X784574Y153771D01*
X784647Y153948D01*
X784724Y154122D01*
X784732Y154156D01*
X784745Y154188D01*
X784785Y154375D01*
X784831Y154560D01*
X784833Y154594D01*
X784840Y154628D01*
X784859Y154940D01*
X784859Y245110D01*
X784856Y245145D01*
X784858Y245179D01*
X784836Y245368D01*
X784819Y245559D01*
X784810Y245592D01*
X784806Y245626D01*
X784751Y245809D01*
X784701Y245993D01*
X784686Y246024D01*
X784676Y246057D01*
X784589Y246228D01*
X784507Y246400D01*
X784487Y246428D01*
X784472Y246459D01*
X784356Y246611D01*
X784245Y246766D01*
X784220Y246790D01*
X784200Y246817D01*
X784060Y246946D01*
X783923Y247080D01*
X783894Y247099D01*
X783868Y247123D01*
X783707Y247225D01*
X783550Y247332D01*
X783518Y247346D01*
X783489Y247364D01*
X783312Y247437D01*
X783138Y247514D01*
X783104Y247522D01*
X783072Y247535D01*
X782885Y247575D01*
X782700Y247621D01*
X782666Y247623D01*
X782632Y247630D01*
X782320Y247649D01*
X689564Y247649D01*
X689487Y247642D01*
X689409Y247644D01*
X689263Y247622D01*
X689116Y247609D01*
X689041Y247589D01*
X688963Y247577D01*
X688824Y247530D01*
X688682Y247491D01*
X688611Y247457D01*
X688537Y247432D01*
X688408Y247361D01*
X688275Y247297D01*
X688212Y247252D01*
X688143Y247214D01*
X688029Y247121D01*
X687909Y247035D01*
X687854Y246979D01*
X687794Y246930D01*
X687698Y246818D01*
X687595Y246713D01*
X687551Y246648D01*
X687500Y246589D01*
X687425Y246462D01*
X687343Y246340D01*
X687311Y246268D01*
X687271Y246201D01*
X687220Y246063D01*
X687161Y245928D01*
X687142Y245852D01*
X687115Y245779D01*
X687089Y245633D01*
X687054Y245490D01*
X687049Y245412D01*
X687035Y245335D01*
X687035Y245188D01*
X687026Y245041D01*
X687035Y244963D01*
X687035Y244885D01*
X687061Y244740D01*
X687078Y244594D01*
X687101Y244519D01*
X687115Y244442D01*
X687166Y244304D01*
X687209Y244163D01*
X687244Y244093D01*
X687271Y244020D01*
X687346Y243893D01*
X687413Y243761D01*
X687460Y243699D01*
X687500Y243632D01*
X687596Y243520D01*
X687685Y243403D01*
X687742Y243350D01*
X687793Y243290D01*
X687908Y243197D01*
X688016Y243098D01*
X688082Y243055D01*
X688143Y243006D01*
X688370Y242872D01*
X688396Y242856D01*
X688403Y242853D01*
X688412Y242847D01*
X689309Y242391D01*
X690778Y241323D01*
X692063Y240038D01*
X693131Y238569D01*
X693955Y236950D01*
X694517Y235223D01*
X694801Y233428D01*
X694801Y226519D01*
X683720Y226519D01*
X683686Y226516D01*
X683651Y226518D01*
X683462Y226496D01*
X683272Y226479D01*
X683238Y226470D01*
X683204Y226466D01*
X683021Y226411D01*
X682837Y226361D01*
X682806Y226346D01*
X682773Y226336D01*
X682602Y226249D01*
X682431Y226167D01*
X682403Y226147D01*
X682372Y226132D01*
X682220Y226016D01*
X682065Y225905D01*
X682040Y225880D01*
X682013Y225860D01*
X681884Y225720D01*
X681751Y225583D01*
X681731Y225554D01*
X681708Y225528D01*
X681605Y225367D01*
X681530Y225257D01*
X681510Y225247D01*
X681482Y225227D01*
X681451Y225211D01*
X681299Y225096D01*
X681144Y224985D01*
X681120Y224960D01*
X681093Y224939D01*
X680964Y224799D01*
X680830Y224662D01*
X680811Y224634D01*
X680787Y224608D01*
X680685Y224447D01*
X680578Y224289D01*
X680564Y224258D01*
X680546Y224228D01*
X680473Y224052D01*
X680396Y223878D01*
X680388Y223844D01*
X680375Y223812D01*
X680334Y223625D01*
X680289Y223440D01*
X680287Y223406D01*
X680280Y223372D01*
X680261Y223060D01*
X680261Y203360D01*
X678830Y203825D01*
X677211Y204649D01*
X675742Y205717D01*
X674457Y207002D01*
X673389Y208471D01*
X672832Y209565D01*
X672816Y209590D01*
X672804Y209618D01*
X672696Y209781D01*
X672593Y209946D01*
X672573Y209968D01*
X672556Y209994D01*
X672421Y210135D01*
X672290Y210279D01*
X672266Y210298D01*
X672245Y210320D01*
X672088Y210435D01*
X671934Y210554D01*
X671907Y210568D01*
X671882Y210586D01*
X671707Y210671D01*
X671534Y210761D01*
X671505Y210770D01*
X671478Y210783D01*
X671290Y210837D01*
X671104Y210894D01*
X671074Y210898D01*
X671044Y210906D01*
X670850Y210926D01*
X670657Y210950D01*
X670627Y210948D01*
X670596Y210951D01*
X670402Y210936D01*
X670207Y210925D01*
X670178Y210918D01*
X670147Y210916D01*
X669959Y210866D01*
X669769Y210821D01*
X669741Y210809D01*
X669712Y210802D01*
X669536Y210720D01*
X669356Y210642D01*
X669331Y210625D01*
X669303Y210613D01*
X669144Y210501D01*
X668981Y210393D01*
X668959Y210372D01*
X668934Y210354D01*
X668797Y210216D01*
X668656Y210081D01*
X668638Y210056D01*
X668617Y210035D01*
X668506Y209875D01*
X668392Y209717D01*
X668378Y209689D01*
X668361Y209664D01*
X668224Y209384D01*
X667644Y207983D01*
X664397Y204736D01*
X660124Y202966D01*
X660107Y202965D01*
X659942Y202958D01*
X659883Y202945D01*
X659822Y202939D01*
X659663Y202896D01*
X659503Y202860D01*
X659446Y202837D01*
X659387Y202821D01*
X659239Y202750D01*
X659087Y202687D01*
X659036Y202654D01*
X658981Y202627D01*
X658847Y202532D01*
X658709Y202442D01*
X658651Y202391D01*
X658615Y202365D01*
X658572Y202322D01*
X658475Y202236D01*
X651094Y194854D01*
X649693Y194274D01*
X635564Y194274D01*
X635465Y194265D01*
X635366Y194267D01*
X635242Y194246D01*
X635116Y194234D01*
X635020Y194208D01*
X634922Y194192D01*
X634803Y194149D01*
X634681Y194116D01*
X634592Y194073D01*
X634498Y194040D01*
X634389Y193977D01*
X634275Y193922D01*
X634194Y193865D01*
X634108Y193815D01*
X634011Y193734D01*
X633909Y193660D01*
X633839Y193589D01*
X633764Y193525D01*
X633683Y193428D01*
X633595Y193338D01*
X633539Y193255D01*
X633476Y193179D01*
X633413Y193069D01*
X633343Y192965D01*
X633302Y192874D01*
X633253Y192787D01*
X633212Y192668D01*
X633160Y192553D01*
X633137Y192456D01*
X633104Y192363D01*
X633084Y192238D01*
X633054Y192115D01*
X633048Y192016D01*
X633032Y191918D01*
X633034Y191792D01*
X633026Y191666D01*
X633038Y191567D01*
X633039Y191468D01*
X633063Y191344D01*
X633078Y191219D01*
X633107Y191123D01*
X633126Y191026D01*
X633172Y190909D01*
X633208Y190788D01*
X633253Y190699D01*
X633290Y190607D01*
X633386Y190439D01*
X633413Y190386D01*
X633422Y190375D01*
X633425Y190367D01*
X633433Y190357D01*
X633445Y190336D01*
X633632Y190052D01*
X633695Y189974D01*
X633749Y189890D01*
X633876Y189746D01*
X633913Y189700D01*
X633931Y189684D01*
X633956Y189656D01*
X634037Y189575D01*
X634095Y189436D01*
X634135Y189360D01*
X634166Y189279D01*
X634282Y189078D01*
X634303Y189037D01*
X634312Y189026D01*
X634322Y189009D01*
X639096Y181779D01*
X639158Y181701D01*
X639212Y181617D01*
X639339Y181473D01*
X639376Y181427D01*
X639394Y181411D01*
X639419Y181383D01*
X639501Y181301D01*
X639558Y181163D01*
X639598Y181086D01*
X639629Y181006D01*
X639745Y180805D01*
X639767Y180764D01*
X639775Y180753D01*
X639785Y180735D01*
X639868Y180610D01*
X639889Y180497D01*
X639917Y180401D01*
X639935Y180303D01*
X639998Y180121D01*
X640014Y180064D01*
X640024Y180043D01*
X640037Y180007D01*
X640081Y179901D01*
X640081Y179751D01*
X640088Y179665D01*
X640087Y179579D01*
X640117Y179348D01*
X640121Y179302D01*
X640124Y179289D01*
X640127Y179269D01*
X640155Y179122D01*
X640132Y179009D01*
X640121Y178910D01*
X640100Y178812D01*
X640088Y178620D01*
X640081Y178561D01*
X640083Y178537D01*
X640081Y178500D01*
X640081Y163920D01*
X640095Y163757D01*
X640102Y163592D01*
X640115Y163533D01*
X640121Y163472D01*
X640164Y163313D01*
X640200Y163153D01*
X640223Y163096D01*
X640239Y163037D01*
X640310Y162889D01*
X640373Y162737D01*
X640406Y162686D01*
X640433Y162631D01*
X640528Y162497D01*
X640618Y162359D01*
X640669Y162301D01*
X640695Y162265D01*
X640738Y162222D01*
X640824Y162125D01*
X676273Y126676D01*
X676399Y126571D01*
X676520Y126459D01*
X676571Y126427D01*
X676618Y126388D01*
X676761Y126306D01*
X676900Y126218D01*
X676956Y126194D01*
X677009Y126164D01*
X677164Y126109D01*
X677316Y126047D01*
X677376Y126034D01*
X677433Y126013D01*
X677596Y125987D01*
X677756Y125952D01*
X677833Y125947D01*
X677878Y125940D01*
X677939Y125941D01*
X678068Y125933D01*
X681006Y125933D01*
X683881Y124742D01*
X686082Y122541D01*
X687273Y119666D01*
X687273Y116554D01*
X686082Y113679D01*
X683881Y111478D01*
X681006Y110287D01*
X677894Y110287D01*
X675019Y111478D01*
X672818Y113679D01*
X671627Y116554D01*
X671627Y119492D01*
X671613Y119655D01*
X671606Y119820D01*
X671593Y119879D01*
X671587Y119940D01*
X671544Y120099D01*
X671508Y120259D01*
X671485Y120316D01*
X671469Y120375D01*
X671398Y120523D01*
X671335Y120675D01*
X671302Y120726D01*
X671275Y120781D01*
X671180Y120915D01*
X671090Y121053D01*
X671039Y121111D01*
X671013Y121147D01*
X670970Y121190D01*
X670884Y121287D01*
X633039Y159131D01*
X632774Y159772D01*
X632692Y159930D01*
X632615Y160090D01*
X632588Y160129D01*
X632565Y160171D01*
X632457Y160312D01*
X632353Y160456D01*
X632319Y160489D01*
X632290Y160527D01*
X632158Y160646D01*
X632031Y160770D01*
X631991Y160797D01*
X631955Y160829D01*
X631805Y160923D01*
X631658Y161022D01*
X631614Y161042D01*
X631573Y161067D01*
X631409Y161133D01*
X631246Y161205D01*
X631199Y161216D01*
X631155Y161234D01*
X630981Y161269D01*
X630808Y161311D01*
X630761Y161314D01*
X630714Y161324D01*
X630536Y161328D01*
X630359Y161339D01*
X630311Y161333D01*
X630264Y161335D01*
X630088Y161307D01*
X629912Y161287D01*
X629866Y161273D01*
X629819Y161266D01*
X629651Y161208D01*
X629481Y161157D01*
X629438Y161135D01*
X629393Y161119D01*
X629238Y161033D01*
X629079Y160952D01*
X629041Y160923D01*
X629000Y160900D01*
X628862Y160787D01*
X628721Y160680D01*
X628688Y160645D01*
X628651Y160615D01*
X628536Y160480D01*
X628415Y160349D01*
X628390Y160309D01*
X628359Y160272D01*
X628269Y160119D01*
X628174Y159969D01*
X628156Y159925D01*
X628131Y159884D01*
X628070Y159717D01*
X628003Y159553D01*
X627993Y159506D01*
X627976Y159461D01*
X627945Y159286D01*
X627908Y159113D01*
X627904Y159053D01*
X627898Y159018D01*
X627898Y158955D01*
X627889Y158801D01*
X627889Y49688D01*
X627038Y47634D01*
X615626Y36223D01*
X615521Y36096D01*
X615409Y35976D01*
X615377Y35924D01*
X615338Y35877D01*
X615256Y35735D01*
X615168Y35596D01*
X615144Y35539D01*
X615114Y35486D01*
X615059Y35332D01*
X614997Y35179D01*
X614984Y35120D01*
X614963Y35062D01*
X614937Y34900D01*
X614902Y34739D01*
X614897Y34662D01*
X614890Y34618D01*
X614891Y34557D01*
X614883Y34427D01*
X614883Y34004D01*
X613692Y31129D01*
X611491Y28928D01*
X608616Y27737D01*
X605504Y27737D01*
X602629Y28928D01*
X600428Y31129D01*
X599237Y34004D01*
X599237Y37116D01*
X600428Y39991D01*
X602629Y42192D01*
X605504Y43383D01*
X605927Y43383D01*
X606091Y43397D01*
X606255Y43404D01*
X606315Y43417D01*
X606376Y43423D01*
X606535Y43466D01*
X606695Y43502D01*
X606751Y43525D01*
X606810Y43541D01*
X606958Y43612D01*
X607110Y43675D01*
X607162Y43708D01*
X607217Y43735D01*
X607350Y43830D01*
X607489Y43920D01*
X607546Y43971D01*
X607583Y43997D01*
X607625Y44040D01*
X607723Y44126D01*
X615968Y52371D01*
X616073Y52498D01*
X616185Y52618D01*
X616217Y52670D01*
X616256Y52717D01*
X616338Y52859D01*
X616426Y52998D01*
X616450Y53055D01*
X616480Y53108D01*
X616535Y53262D01*
X616597Y53415D01*
X616610Y53474D01*
X616631Y53532D01*
X616657Y53694D01*
X616692Y53855D01*
X616697Y53932D01*
X616704Y53976D01*
X616703Y54037D01*
X616711Y54167D01*
X616711Y55880D01*
X616708Y55915D01*
X616710Y55949D01*
X616688Y56138D01*
X616671Y56329D01*
X616662Y56362D01*
X616658Y56396D01*
X616603Y56579D01*
X616553Y56763D01*
X616538Y56794D01*
X616528Y56827D01*
X616441Y56998D01*
X616359Y57170D01*
X616339Y57198D01*
X616324Y57229D01*
X616208Y57381D01*
X616097Y57536D01*
X616072Y57560D01*
X616052Y57587D01*
X615912Y57716D01*
X615775Y57850D01*
X615746Y57869D01*
X615720Y57893D01*
X615559Y57995D01*
X615402Y58102D01*
X615370Y58116D01*
X615341Y58134D01*
X615164Y58207D01*
X614990Y58284D01*
X614956Y58292D01*
X614924Y58305D01*
X614737Y58345D01*
X614552Y58391D01*
X614518Y58393D01*
X614484Y58400D01*
X614172Y58419D01*
X590550Y58419D01*
X590516Y58416D01*
X590481Y58418D01*
X590292Y58396D01*
X590102Y58379D01*
X590068Y58370D01*
X590034Y58366D01*
X589851Y58311D01*
X589667Y58261D01*
X589636Y58246D01*
X589603Y58236D01*
X589432Y58149D01*
X589261Y58067D01*
X589232Y58047D01*
X589201Y58032D01*
X589049Y57916D01*
X588894Y57805D01*
X588870Y57780D01*
X588843Y57760D01*
X588714Y57620D01*
X588580Y57483D01*
X588561Y57454D01*
X588538Y57428D01*
X588435Y57267D01*
X588328Y57110D01*
X588314Y57078D01*
X588296Y57049D01*
X588223Y56872D01*
X588146Y56698D01*
X588138Y56664D01*
X588125Y56632D01*
X588085Y56445D01*
X588039Y56260D01*
X588037Y56226D01*
X588030Y56192D01*
X588011Y55880D01*
X588011Y8890D01*
X588014Y8855D01*
X588012Y8821D01*
X588034Y8632D01*
X588051Y8441D01*
X588060Y8408D01*
X588064Y8374D01*
X588119Y8191D01*
X588169Y8007D01*
X588184Y7976D01*
X588194Y7943D01*
X588281Y7772D01*
X588363Y7600D01*
X588383Y7572D01*
X588398Y7541D01*
X588514Y7389D01*
X588625Y7234D01*
X588650Y7210D01*
X588670Y7183D01*
X588811Y7054D01*
X588947Y6920D01*
X588976Y6901D01*
X589002Y6877D01*
X589163Y6775D01*
X589320Y6668D01*
X589352Y6654D01*
X589381Y6636D01*
X589558Y6563D01*
X589732Y6486D01*
X589766Y6478D01*
X589798Y6465D01*
X589985Y6425D01*
X590170Y6379D01*
X590204Y6377D01*
X590238Y6370D01*
X590550Y6351D01*
X704850Y6351D01*
X704885Y6354D01*
G37*
%LPC*%
G36*
X164151Y51205D02*
X164151Y51205D01*
X159533Y53118D01*
X155998Y56653D01*
X154085Y61271D01*
X154085Y66269D01*
X155998Y70887D01*
X159533Y74422D01*
X164151Y76335D01*
X169149Y76335D01*
X173767Y74422D01*
X177302Y70887D01*
X179215Y66269D01*
X179215Y61271D01*
X177302Y56653D01*
X173767Y53118D01*
X169149Y51205D01*
X164151Y51205D01*
G37*
%LPD*%
%LPC*%
G36*
X269151Y51205D02*
X269151Y51205D01*
X264533Y53118D01*
X260998Y56653D01*
X259085Y61271D01*
X259085Y66269D01*
X260998Y70887D01*
X264533Y74422D01*
X269151Y76335D01*
X274149Y76335D01*
X278767Y74422D01*
X282302Y70887D01*
X284215Y66269D01*
X284215Y61271D01*
X282302Y56653D01*
X278767Y53118D01*
X274149Y51205D01*
X269151Y51205D01*
G37*
%LPD*%
%LPC*%
G36*
X234151Y51205D02*
X234151Y51205D01*
X229533Y53118D01*
X225998Y56653D01*
X224085Y61271D01*
X224085Y66269D01*
X225998Y70887D01*
X229533Y74422D01*
X234151Y76335D01*
X239149Y76335D01*
X243767Y74422D01*
X247302Y70887D01*
X249215Y66269D01*
X249215Y61271D01*
X247302Y56653D01*
X243767Y53118D01*
X239149Y51205D01*
X234151Y51205D01*
G37*
%LPD*%
%LPC*%
G36*
X199151Y51205D02*
X199151Y51205D01*
X194533Y53118D01*
X190998Y56653D01*
X189085Y61271D01*
X189085Y66269D01*
X190998Y70887D01*
X194533Y74422D01*
X199151Y76335D01*
X204149Y76335D01*
X208767Y74422D01*
X212302Y70887D01*
X214215Y66269D01*
X214215Y61271D01*
X212302Y56653D01*
X208767Y53118D01*
X204149Y51205D01*
X199151Y51205D01*
G37*
%LPD*%
%LPC*%
G36*
X94151Y51205D02*
X94151Y51205D01*
X89533Y53118D01*
X85998Y56653D01*
X84085Y61271D01*
X84085Y66269D01*
X85998Y70887D01*
X89533Y74422D01*
X94151Y76335D01*
X99149Y76335D01*
X103767Y74422D01*
X107302Y70887D01*
X109215Y66269D01*
X109215Y61271D01*
X107302Y56653D01*
X103767Y53118D01*
X99149Y51205D01*
X94151Y51205D01*
G37*
%LPD*%
%LPC*%
G36*
X686259Y220521D02*
X686259Y220521D01*
X694801Y220521D01*
X694801Y213612D01*
X694517Y211817D01*
X693955Y210090D01*
X693131Y208471D01*
X692063Y207002D01*
X690778Y205717D01*
X689309Y204649D01*
X687690Y203825D01*
X686259Y203360D01*
X686259Y220521D01*
G37*
%LPD*%
%LPC*%
G36*
X32999Y193049D02*
X32999Y193049D01*
X32999Y205537D01*
X33430Y205480D01*
X35359Y204963D01*
X37205Y204198D01*
X38936Y203199D01*
X40520Y201983D01*
X41933Y200570D01*
X43149Y198986D01*
X44148Y197255D01*
X44913Y195409D01*
X45430Y193480D01*
X45487Y193049D01*
X32999Y193049D01*
G37*
%LPD*%
%LPC*%
G36*
X15413Y193049D02*
X15413Y193049D01*
X15470Y193480D01*
X15987Y195409D01*
X16752Y197255D01*
X17751Y198986D01*
X18967Y200570D01*
X20380Y201983D01*
X21964Y203199D01*
X23695Y204198D01*
X25541Y204963D01*
X27470Y205480D01*
X27901Y205537D01*
X27901Y193049D01*
X15413Y193049D01*
G37*
%LPD*%
%LPC*%
G36*
X32999Y187951D02*
X32999Y187951D01*
X45487Y187951D01*
X45430Y187520D01*
X44913Y185591D01*
X44148Y183745D01*
X43149Y182014D01*
X41933Y180430D01*
X40520Y179017D01*
X38936Y177801D01*
X37205Y176802D01*
X35359Y176037D01*
X33430Y175520D01*
X32999Y175463D01*
X32999Y187951D01*
G37*
%LPD*%
%LPC*%
G36*
X27470Y175520D02*
X27470Y175520D01*
X25541Y176037D01*
X23695Y176802D01*
X21964Y177801D01*
X20380Y179017D01*
X18967Y180430D01*
X17751Y182014D01*
X16752Y183745D01*
X15987Y185591D01*
X15470Y187520D01*
X15413Y187951D01*
X27901Y187951D01*
X27901Y175463D01*
X27470Y175520D01*
G37*
%LPD*%
%LPC*%
G36*
X64399Y66519D02*
X64399Y66519D01*
X64399Y74486D01*
X65888Y74002D01*
X67437Y73213D01*
X68842Y72192D01*
X70072Y70962D01*
X71093Y69557D01*
X71882Y68008D01*
X72366Y66519D01*
X64399Y66519D01*
G37*
%LPD*%
%LPC*%
G36*
X134399Y66519D02*
X134399Y66519D01*
X134399Y74486D01*
X135888Y74002D01*
X137437Y73213D01*
X138842Y72192D01*
X140072Y70962D01*
X141093Y69557D01*
X141882Y68008D01*
X142366Y66519D01*
X134399Y66519D01*
G37*
%LPD*%
%LPC*%
G36*
X120934Y66519D02*
X120934Y66519D01*
X121418Y68008D01*
X122207Y69557D01*
X123228Y70962D01*
X124458Y72192D01*
X125863Y73213D01*
X127412Y74002D01*
X128901Y74486D01*
X128901Y66519D01*
X120934Y66519D01*
G37*
%LPD*%
%LPC*%
G36*
X134399Y61021D02*
X134399Y61021D01*
X142366Y61021D01*
X141882Y59532D01*
X141093Y57983D01*
X140072Y56578D01*
X138842Y55348D01*
X137437Y54327D01*
X135888Y53538D01*
X134399Y53054D01*
X134399Y61021D01*
G37*
%LPD*%
%LPC*%
G36*
X64399Y61021D02*
X64399Y61021D01*
X72366Y61021D01*
X71882Y59532D01*
X71093Y57983D01*
X70072Y56578D01*
X68842Y55348D01*
X67437Y54327D01*
X65888Y53538D01*
X64399Y53054D01*
X64399Y61021D01*
G37*
%LPD*%
%LPC*%
G36*
X127412Y53538D02*
X127412Y53538D01*
X125863Y54327D01*
X124458Y55348D01*
X123228Y56578D01*
X122207Y57983D01*
X121418Y59532D01*
X120934Y61021D01*
X128901Y61021D01*
X128901Y53054D01*
X127412Y53538D01*
G37*
%LPD*%
D10*
X69850Y146050D03*
D11*
X95250Y146050D03*
X120650Y146050D03*
X146050Y146050D03*
X171450Y146050D03*
D12*
X607060Y214520D02*
X607060Y232520D01*
X632460Y232520D02*
X632460Y214520D01*
X657860Y214520D02*
X657860Y232520D01*
X683260Y232520D02*
X683260Y214520D01*
D13*
X30450Y63500D03*
X30450Y190500D03*
D14*
X61650Y63770D03*
X96650Y63770D03*
X131650Y63770D03*
X166650Y63770D03*
X201650Y63770D03*
X236650Y63770D03*
X271650Y63770D03*
X306650Y63770D03*
D12*
X336440Y156210D02*
X354440Y156210D01*
X354440Y181610D02*
X336440Y181610D01*
X336440Y207010D02*
X354440Y207010D01*
X354440Y232410D02*
X336440Y232410D01*
D15*
X651510Y34290D03*
D16*
X693420Y213360D02*
X683260Y223520D01*
X693420Y213360D02*
X693420Y109220D01*
D17*
X435610Y50800D03*
D16*
X651510Y67310D02*
X693420Y109220D01*
X651510Y67310D02*
X651510Y34290D01*
D18*
X441960Y57150D02*
X435610Y50800D01*
X590550Y57150D02*
X596900Y50800D01*
X596900Y19050D01*
X603250Y12700D01*
X641350Y12700D02*
X651510Y22860D01*
X651510Y34290D01*
X590550Y57150D02*
X441960Y57150D01*
X603250Y12700D02*
X641350Y12700D01*
D19*
X30450Y63500D02*
X30450Y93950D01*
X50800Y114300D01*
D15*
X317500Y114300D03*
D16*
X327660Y156210D02*
X345440Y156210D01*
X327660Y156210D02*
X317500Y146050D01*
X317500Y114300D01*
D19*
X50800Y114300D01*
D15*
X601980Y86360D03*
D18*
X351790Y207010D02*
X345440Y207010D01*
X351790Y207010D02*
X387350Y171450D01*
X387350Y95250D01*
X408940Y73660D01*
X595630Y73660D01*
X601980Y80010D02*
X601980Y86360D01*
X601980Y80010D02*
X595630Y73660D01*
X601980Y86360D02*
X601980Y182880D01*
X617185Y198085D02*
X648935Y198085D01*
X657860Y207010D02*
X657860Y223520D01*
X617185Y198085D02*
X601980Y182880D01*
X648935Y198085D02*
X657860Y207010D01*
D15*
X355600Y88900D03*
D20*
X622300Y176530D03*
D15*
X607060Y35560D03*
D16*
X622300Y62230D02*
X622300Y176530D01*
X622300Y62230D02*
X622300Y50800D01*
X607060Y35560D01*
X331780Y88900D02*
X306650Y63770D01*
X331780Y88900D02*
X355600Y88900D01*
D18*
X382270Y62230D01*
X622300Y62230D01*
D15*
X679450Y118110D03*
D18*
X613322Y181708D02*
X619031Y187416D01*
X630807Y187416D01*
X613322Y181708D02*
X613738Y75911D01*
X605481Y67564D01*
X403860Y67564D01*
X381000Y90424D01*
X381000Y165100D01*
X364490Y181610D01*
X636270Y179143D02*
X636270Y161290D01*
X679450Y118110D01*
X636270Y179143D02*
X630807Y187416D01*
D21*
X364490Y181610D02*
X345440Y181610D01*
D22*
X279400Y158750D03*
D23*
X69850Y146050D02*
X69850Y139700D01*
X86360Y123190D01*
X243840Y123190D01*
X279400Y158750D01*
M02*
