G04 EAGLE Gerber RS-274X export*
G75*
%MOMM*%
%FSLAX34Y34*%
%LPD*%
%INSoldermask Top*%
%IPPOS*%
%AMOC8*
5,1,8,0,0,1.08239X$1,22.5*%
G01*
%ADD10R,1.981200X1.981200*%
%ADD11C,1.981200*%
%ADD12R,1.968500X0.762000*%
%ADD13R,0.863600X1.143000*%
%ADD14R,1.143000X0.863600*%
%ADD15R,0.703200X1.278200*%
%ADD16R,1.453200X0.853200*%
%ADD17R,1.053200X1.203200*%
%ADD18R,1.803200X0.903200*%
%ADD19R,1.203200X0.803200*%
%ADD20R,1.653200X1.203200*%
%ADD21C,2.003200*%
%ADD22C,2.743200*%
%ADD23R,1.153200X1.803200*%
%ADD24C,1.903200*%
%ADD25R,1.203200X1.053200*%
%ADD26R,1.003200X1.003200*%
%ADD27C,1.259600*%
%ADD28C,1.159600*%
%ADD29C,1.409600*%
%ADD30C,1.109600*%


D10*
X69850Y146050D03*
D11*
X95250Y146050D03*
X120650Y146050D03*
X146050Y146050D03*
X171450Y146050D03*
D12*
X300292Y120650D03*
X300292Y133350D03*
X300292Y146050D03*
X300292Y158750D03*
X300292Y171450D03*
X300292Y184150D03*
X300292Y196850D03*
X300292Y209550D03*
X300292Y222250D03*
X300292Y234950D03*
X207709Y234950D03*
X207709Y222250D03*
X207709Y209550D03*
X207709Y196850D03*
X207709Y184150D03*
X207709Y171450D03*
X207709Y158750D03*
X207709Y146050D03*
X207709Y133350D03*
X207709Y120650D03*
D13*
X108712Y114300D03*
X94488Y114300D03*
D14*
X377190Y90678D03*
X377190Y104902D03*
X681990Y166878D03*
X681990Y181102D03*
D15*
X728980Y175070D03*
X728980Y198310D03*
D16*
X639740Y182220D03*
X639740Y163220D03*
X660740Y172720D03*
D17*
X68700Y231140D03*
X83700Y231140D03*
X68700Y215900D03*
X83700Y215900D03*
X68700Y200660D03*
X83700Y200660D03*
D18*
X124700Y226400D03*
X154700Y226400D03*
X124700Y215900D03*
X154700Y215900D03*
X124700Y205400D03*
X154700Y205400D03*
D19*
X337250Y127660D03*
X337250Y108560D03*
X361250Y118110D03*
D20*
X451200Y50800D03*
X526700Y50800D03*
X421290Y50800D03*
X345790Y50800D03*
D21*
X607060Y214520D02*
X607060Y232520D01*
X632460Y232520D02*
X632460Y214520D01*
X657860Y214520D02*
X657860Y232520D01*
X683260Y232520D02*
X683260Y214520D01*
D22*
X30450Y63500D03*
X30450Y190500D03*
D23*
X510540Y228600D03*
X495540Y228600D03*
X480540Y228600D03*
X465540Y228600D03*
X450540Y228600D03*
X435540Y228600D03*
X420540Y228600D03*
X405540Y228600D03*
X405540Y102600D03*
X420540Y102600D03*
X435540Y102600D03*
X450540Y102600D03*
X465540Y102600D03*
X480540Y102600D03*
X495540Y102600D03*
X510540Y102600D03*
X711200Y142240D03*
X696200Y142240D03*
X681200Y142240D03*
X666200Y142240D03*
X651200Y142240D03*
X636200Y142240D03*
X621200Y142240D03*
X606200Y142240D03*
X606200Y16240D03*
X621200Y16240D03*
X636200Y16240D03*
X651200Y16240D03*
X666200Y16240D03*
X681200Y16240D03*
X696200Y16240D03*
X711200Y16240D03*
D14*
X703580Y179832D03*
X703580Y165608D03*
D24*
X61650Y63770D03*
X96650Y63770D03*
X131650Y63770D03*
X166650Y63770D03*
X201650Y63770D03*
X236650Y63770D03*
X271650Y63770D03*
X306650Y63770D03*
D25*
X605790Y165220D03*
X605790Y180220D03*
D26*
X753110Y171570D03*
X753110Y186570D03*
D25*
X751840Y202050D03*
X751840Y217050D03*
D21*
X354440Y156210D02*
X336440Y156210D01*
X336440Y181610D02*
X354440Y181610D01*
X354440Y207010D02*
X336440Y207010D01*
X336440Y232410D02*
X354440Y232410D01*
D27*
X651510Y34290D03*
D28*
X435610Y50800D03*
D27*
X317500Y114300D03*
X601980Y86360D03*
X355600Y88900D03*
D29*
X622300Y176530D03*
D27*
X607060Y35560D03*
X679450Y118110D03*
D30*
X279400Y158750D03*
M02*
