G04 EAGLE Gerber RS-274X export*
G75*
%MOMM*%
%FSLAX34Y34*%
%LPD*%
%INSolderpaste Top*%
%IPPOS*%
%AMOC8*
5,1,8,0,0,1.08239X$1,22.5*%
G01*
%ADD10R,1.765300X0.558800*%
%ADD11R,0.660400X0.939800*%
%ADD12R,0.939800X0.660400*%
%ADD13R,0.500000X1.075000*%
%ADD14R,1.250000X0.650000*%
%ADD15R,0.850000X1.000000*%
%ADD16R,1.600000X0.700000*%
%ADD17R,1.000000X0.600000*%
%ADD18R,1.450000X1.000000*%
%ADD19R,0.950000X1.600000*%
%ADD20R,1.000000X0.850000*%
%ADD21R,0.800000X0.800000*%


D10*
X300292Y120650D03*
X300292Y133350D03*
X300292Y146050D03*
X300292Y158750D03*
X300292Y171450D03*
X300292Y184150D03*
X300292Y196850D03*
X300292Y209550D03*
X300292Y222250D03*
X300292Y234950D03*
X207709Y234950D03*
X207709Y222250D03*
X207709Y209550D03*
X207709Y196850D03*
X207709Y184150D03*
X207709Y171450D03*
X207709Y158750D03*
X207709Y146050D03*
X207709Y133350D03*
X207709Y120650D03*
D11*
X108712Y114300D03*
X94488Y114300D03*
D12*
X377190Y90678D03*
X377190Y104902D03*
X681990Y166878D03*
X681990Y181102D03*
D13*
X728980Y175070D03*
X728980Y198310D03*
D14*
X639740Y182220D03*
X639740Y163220D03*
X660740Y172720D03*
D15*
X68700Y231140D03*
X83700Y231140D03*
X68700Y215900D03*
X83700Y215900D03*
X68700Y200660D03*
X83700Y200660D03*
D16*
X124700Y226400D03*
X154700Y226400D03*
X124700Y215900D03*
X154700Y215900D03*
X124700Y205400D03*
X154700Y205400D03*
D17*
X337250Y127660D03*
X337250Y108560D03*
X361250Y118110D03*
D18*
X451200Y50800D03*
X526700Y50800D03*
X421290Y50800D03*
X345790Y50800D03*
D19*
X510540Y228600D03*
X495540Y228600D03*
X480540Y228600D03*
X465540Y228600D03*
X450540Y228600D03*
X435540Y228600D03*
X420540Y228600D03*
X405540Y228600D03*
X405540Y102600D03*
X420540Y102600D03*
X435540Y102600D03*
X450540Y102600D03*
X465540Y102600D03*
X480540Y102600D03*
X495540Y102600D03*
X510540Y102600D03*
X711200Y142240D03*
X696200Y142240D03*
X681200Y142240D03*
X666200Y142240D03*
X651200Y142240D03*
X636200Y142240D03*
X621200Y142240D03*
X606200Y142240D03*
X606200Y16240D03*
X621200Y16240D03*
X636200Y16240D03*
X651200Y16240D03*
X666200Y16240D03*
X681200Y16240D03*
X696200Y16240D03*
X711200Y16240D03*
D12*
X703580Y179832D03*
X703580Y165608D03*
D20*
X605790Y165220D03*
X605790Y180220D03*
D21*
X753110Y171570D03*
X753110Y186570D03*
D20*
X751840Y202050D03*
X751840Y217050D03*
M02*
