G04 EAGLE Gerber RS-274X export*
G75*
%MOMM*%
%FSLAX34Y34*%
%LPD*%
%INSoldermask Bottom*%
%IPPOS*%
%AMOC8*
5,1,8,0,0,1.08239X$1,22.5*%
G01*
%ADD10R,1.981200X1.981200*%
%ADD11C,1.981200*%
%ADD12C,2.003200*%
%ADD13C,2.743200*%
%ADD14C,1.903200*%
%ADD15C,1.259600*%
%ADD16C,1.159600*%
%ADD17C,1.409600*%
%ADD18C,1.109600*%


D10*
X69850Y146050D03*
D11*
X95250Y146050D03*
X120650Y146050D03*
X146050Y146050D03*
X171450Y146050D03*
D12*
X607060Y214520D02*
X607060Y232520D01*
X632460Y232520D02*
X632460Y214520D01*
X657860Y214520D02*
X657860Y232520D01*
X683260Y232520D02*
X683260Y214520D01*
D13*
X30450Y63500D03*
X30450Y190500D03*
D14*
X61650Y63770D03*
X96650Y63770D03*
X131650Y63770D03*
X166650Y63770D03*
X201650Y63770D03*
X236650Y63770D03*
X271650Y63770D03*
X306650Y63770D03*
D12*
X336440Y156210D02*
X354440Y156210D01*
X354440Y181610D02*
X336440Y181610D01*
X336440Y207010D02*
X354440Y207010D01*
X354440Y232410D02*
X336440Y232410D01*
D15*
X651510Y34290D03*
D16*
X435610Y50800D03*
D15*
X317500Y114300D03*
X601980Y86360D03*
X355600Y88900D03*
D17*
X622300Y176530D03*
D15*
X607060Y35560D03*
X679450Y118110D03*
D18*
X279400Y158750D03*
M02*
